<mxfile host="app.diagrams.net" agent="Mozilla/5.0 (Windows NT 10.0; Win64; x64) AppleWebKit/537.36 (KHTML, like Gecko) Chrome/128.0.0.0 Safari/537.36" version="24.7.17">
  <diagram name="PÃ¡gina-1" id="LJ_EVq-4JozZBohwoSOf">
    <mxGraphModel grid="1" page="0" gridSize="10" guides="1" tooltips="1" connect="1" arrows="1" fold="1" pageScale="1" pageWidth="827" pageHeight="1169" math="0" shadow="0">
      <root>
        <mxCell id="0" />
        <mxCell id="1" parent="0" />
        <mxCell id="nun3F6Sf1-hT-UwbbtUc-15" value="" style="group" connectable="0" vertex="1" parent="1">
          <mxGeometry x="40" y="630" width="120" height="218" as="geometry" />
        </mxCell>
        <mxCell id="nun3F6Sf1-hT-UwbbtUc-12" value="" style="group" connectable="0" vertex="1" parent="nun3F6Sf1-hT-UwbbtUc-15">
          <mxGeometry width="120" height="80" as="geometry" />
        </mxCell>
        <mxCell id="nun3F6Sf1-hT-UwbbtUc-6" value="" style="endArrow=none;html=1;rounded=0;fontSize=12;startSize=8;endSize=8;curved=1;" edge="1" parent="nun3F6Sf1-hT-UwbbtUc-12">
          <mxGeometry width="50" height="50" relative="1" as="geometry">
            <mxPoint x="20" y="40" as="sourcePoint" />
            <mxPoint x="100" y="40" as="targetPoint" />
          </mxGeometry>
        </mxCell>
        <mxCell id="nun3F6Sf1-hT-UwbbtUc-7" value="" style="endArrow=none;html=1;rounded=0;fontSize=12;startSize=8;endSize=8;curved=1;" edge="1" parent="nun3F6Sf1-hT-UwbbtUc-12">
          <mxGeometry width="50" height="50" relative="1" as="geometry">
            <mxPoint x="60" y="80" as="sourcePoint" />
            <mxPoint x="60" as="targetPoint" />
          </mxGeometry>
        </mxCell>
        <mxCell id="nun3F6Sf1-hT-UwbbtUc-8" value="0" style="text;html=1;align=center;verticalAlign=middle;whiteSpace=wrap;rounded=0;fontSize=16;" vertex="1" parent="nun3F6Sf1-hT-UwbbtUc-12">
          <mxGeometry y="10" width="60" height="30" as="geometry" />
        </mxCell>
        <mxCell id="nun3F6Sf1-hT-UwbbtUc-9" value="0" style="text;html=1;align=center;verticalAlign=middle;whiteSpace=wrap;rounded=0;fontSize=16;" vertex="1" parent="nun3F6Sf1-hT-UwbbtUc-12">
          <mxGeometry x="60" y="10" width="60" height="30" as="geometry" />
        </mxCell>
        <mxCell id="nun3F6Sf1-hT-UwbbtUc-10" value="0" style="text;html=1;align=center;verticalAlign=middle;whiteSpace=wrap;rounded=0;fontSize=16;" vertex="1" parent="nun3F6Sf1-hT-UwbbtUc-12">
          <mxGeometry y="40" width="60" height="30" as="geometry" />
        </mxCell>
        <mxCell id="nun3F6Sf1-hT-UwbbtUc-11" value="0" style="text;html=1;align=center;verticalAlign=middle;whiteSpace=wrap;rounded=0;fontSize=16;" vertex="1" parent="nun3F6Sf1-hT-UwbbtUc-12">
          <mxGeometry x="60" y="40" width="60" height="30" as="geometry" />
        </mxCell>
        <mxCell id="nun3F6Sf1-hT-UwbbtUc-14" value="" style="group" connectable="0" vertex="1" parent="nun3F6Sf1-hT-UwbbtUc-15">
          <mxGeometry x="20" y="90" width="80" height="128" as="geometry" />
        </mxCell>
        <mxCell id="nun3F6Sf1-hT-UwbbtUc-420" style="edgeStyle=none;curved=1;rounded=0;orthogonalLoop=1;jettySize=auto;html=1;exitX=1;exitY=0.5;exitDx=0;exitDy=0;fontSize=12;startSize=8;endSize=8;" edge="1" parent="nun3F6Sf1-hT-UwbbtUc-14" source="nun3F6Sf1-hT-UwbbtUc-4">
          <mxGeometry relative="1" as="geometry">
            <mxPoint x="250.00000000000023" y="88" as="targetPoint" />
          </mxGeometry>
        </mxCell>
        <mxCell id="nun3F6Sf1-hT-UwbbtUc-4" value="INICIO" style="ellipse;whiteSpace=wrap;html=1;aspect=fixed;" vertex="1" parent="nun3F6Sf1-hT-UwbbtUc-14">
          <mxGeometry y="48" width="80" height="80" as="geometry" />
        </mxCell>
        <mxCell id="nun3F6Sf1-hT-UwbbtUc-16" value="" style="group" connectable="0" vertex="1" parent="1">
          <mxGeometry x="1630" y="630" width="120" height="218" as="geometry" />
        </mxCell>
        <mxCell id="nun3F6Sf1-hT-UwbbtUc-17" value="" style="group" connectable="0" vertex="1" parent="nun3F6Sf1-hT-UwbbtUc-16">
          <mxGeometry width="120" height="80" as="geometry" />
        </mxCell>
        <mxCell id="nun3F6Sf1-hT-UwbbtUc-18" value="" style="endArrow=none;html=1;rounded=0;fontSize=12;startSize=8;endSize=8;curved=1;" edge="1" parent="nun3F6Sf1-hT-UwbbtUc-17">
          <mxGeometry width="50" height="50" relative="1" as="geometry">
            <mxPoint x="20" y="40" as="sourcePoint" />
            <mxPoint x="100" y="40" as="targetPoint" />
          </mxGeometry>
        </mxCell>
        <mxCell id="nun3F6Sf1-hT-UwbbtUc-19" value="" style="endArrow=none;html=1;rounded=0;fontSize=12;startSize=8;endSize=8;curved=1;" edge="1" parent="nun3F6Sf1-hT-UwbbtUc-17">
          <mxGeometry width="50" height="50" relative="1" as="geometry">
            <mxPoint x="60" y="80" as="sourcePoint" />
            <mxPoint x="60" as="targetPoint" />
          </mxGeometry>
        </mxCell>
        <mxCell id="nun3F6Sf1-hT-UwbbtUc-20" value="11" style="text;html=1;align=center;verticalAlign=middle;whiteSpace=wrap;rounded=0;fontSize=16;" vertex="1" parent="nun3F6Sf1-hT-UwbbtUc-17">
          <mxGeometry y="10" width="60" height="30" as="geometry" />
        </mxCell>
        <mxCell id="nun3F6Sf1-hT-UwbbtUc-21" value="11" style="text;html=1;align=center;verticalAlign=middle;whiteSpace=wrap;rounded=0;fontSize=16;" vertex="1" parent="nun3F6Sf1-hT-UwbbtUc-17">
          <mxGeometry x="60" y="10" width="60" height="30" as="geometry" />
        </mxCell>
        <mxCell id="nun3F6Sf1-hT-UwbbtUc-22" value="11" style="text;html=1;align=center;verticalAlign=middle;whiteSpace=wrap;rounded=0;fontSize=16;" vertex="1" parent="nun3F6Sf1-hT-UwbbtUc-17">
          <mxGeometry y="40" width="60" height="30" as="geometry" />
        </mxCell>
        <mxCell id="nun3F6Sf1-hT-UwbbtUc-23" value="11" style="text;html=1;align=center;verticalAlign=middle;whiteSpace=wrap;rounded=0;fontSize=16;" vertex="1" parent="nun3F6Sf1-hT-UwbbtUc-17">
          <mxGeometry x="60" y="40" width="60" height="30" as="geometry" />
        </mxCell>
        <mxCell id="nun3F6Sf1-hT-UwbbtUc-24" value="" style="group" connectable="0" vertex="1" parent="nun3F6Sf1-hT-UwbbtUc-16">
          <mxGeometry x="20" y="90" width="80" height="128" as="geometry" />
        </mxCell>
        <mxCell id="nun3F6Sf1-hT-UwbbtUc-25" value="FINAL" style="ellipse;whiteSpace=wrap;html=1;aspect=fixed;" vertex="1" parent="nun3F6Sf1-hT-UwbbtUc-24">
          <mxGeometry y="48" width="80" height="80" as="geometry" />
        </mxCell>
        <mxCell id="nun3F6Sf1-hT-UwbbtUc-28" value="" style="group" connectable="0" vertex="1" parent="1">
          <mxGeometry x="680" y="630" width="120" height="218" as="geometry" />
        </mxCell>
        <mxCell id="nun3F6Sf1-hT-UwbbtUc-29" value="" style="group" connectable="0" vertex="1" parent="nun3F6Sf1-hT-UwbbtUc-28">
          <mxGeometry width="120" height="80" as="geometry" />
        </mxCell>
        <mxCell id="nun3F6Sf1-hT-UwbbtUc-30" value="" style="endArrow=none;html=1;rounded=0;fontSize=12;startSize=8;endSize=8;curved=1;" edge="1" parent="nun3F6Sf1-hT-UwbbtUc-29">
          <mxGeometry width="50" height="50" relative="1" as="geometry">
            <mxPoint x="20" y="40" as="sourcePoint" />
            <mxPoint x="100" y="40" as="targetPoint" />
          </mxGeometry>
        </mxCell>
        <mxCell id="nun3F6Sf1-hT-UwbbtUc-31" value="" style="endArrow=none;html=1;rounded=0;fontSize=12;startSize=8;endSize=8;curved=1;" edge="1" parent="nun3F6Sf1-hT-UwbbtUc-29">
          <mxGeometry width="50" height="50" relative="1" as="geometry">
            <mxPoint x="60" y="80" as="sourcePoint" />
            <mxPoint x="60" as="targetPoint" />
          </mxGeometry>
        </mxCell>
        <mxCell id="nun3F6Sf1-hT-UwbbtUc-32" value="3.5" style="text;html=1;align=center;verticalAlign=middle;whiteSpace=wrap;rounded=0;fontSize=16;" vertex="1" parent="nun3F6Sf1-hT-UwbbtUc-29">
          <mxGeometry y="10" width="60" height="30" as="geometry" />
        </mxCell>
        <mxCell id="nun3F6Sf1-hT-UwbbtUc-33" value="4.5" style="text;html=1;align=center;verticalAlign=middle;whiteSpace=wrap;rounded=0;fontSize=16;" vertex="1" parent="nun3F6Sf1-hT-UwbbtUc-29">
          <mxGeometry x="60" y="10" width="60" height="30" as="geometry" />
        </mxCell>
        <mxCell id="nun3F6Sf1-hT-UwbbtUc-34" value="5.5" style="text;html=1;align=center;verticalAlign=middle;whiteSpace=wrap;rounded=0;fontSize=16;" vertex="1" parent="nun3F6Sf1-hT-UwbbtUc-29">
          <mxGeometry y="40" width="60" height="30" as="geometry" />
        </mxCell>
        <mxCell id="nun3F6Sf1-hT-UwbbtUc-35" value="6.5" style="text;html=1;align=center;verticalAlign=middle;whiteSpace=wrap;rounded=0;fontSize=16;" vertex="1" parent="nun3F6Sf1-hT-UwbbtUc-29">
          <mxGeometry x="60" y="40" width="60" height="30" as="geometry" />
        </mxCell>
        <mxCell id="nun3F6Sf1-hT-UwbbtUc-36" value="" style="group" connectable="0" vertex="1" parent="nun3F6Sf1-hT-UwbbtUc-28">
          <mxGeometry x="20" y="90" width="80" height="128" as="geometry" />
        </mxCell>
        <mxCell id="nun3F6Sf1-hT-UwbbtUc-37" value="7" style="ellipse;whiteSpace=wrap;html=1;aspect=fixed;" vertex="1" parent="nun3F6Sf1-hT-UwbbtUc-36">
          <mxGeometry y="48" width="80" height="80" as="geometry" />
        </mxCell>
        <mxCell id="nun3F6Sf1-hT-UwbbtUc-38" value="H=2" style="text;html=1;align=center;verticalAlign=middle;whiteSpace=wrap;rounded=0;fontSize=16;" vertex="1" parent="nun3F6Sf1-hT-UwbbtUc-36">
          <mxGeometry x="10" width="60" height="30" as="geometry" />
        </mxCell>
        <mxCell id="nun3F6Sf1-hT-UwbbtUc-42" value="" style="group" connectable="0" vertex="1" parent="1">
          <mxGeometry x="680" y="900" width="120" height="218" as="geometry" />
        </mxCell>
        <mxCell id="nun3F6Sf1-hT-UwbbtUc-43" value="" style="group" connectable="0" vertex="1" parent="nun3F6Sf1-hT-UwbbtUc-42">
          <mxGeometry width="120" height="80" as="geometry" />
        </mxCell>
        <mxCell id="nun3F6Sf1-hT-UwbbtUc-44" value="" style="endArrow=none;html=1;rounded=0;fontSize=12;startSize=8;endSize=8;curved=1;" edge="1" parent="nun3F6Sf1-hT-UwbbtUc-43">
          <mxGeometry width="50" height="50" relative="1" as="geometry">
            <mxPoint x="20" y="40" as="sourcePoint" />
            <mxPoint x="100" y="40" as="targetPoint" />
          </mxGeometry>
        </mxCell>
        <mxCell id="nun3F6Sf1-hT-UwbbtUc-45" value="" style="endArrow=none;html=1;rounded=0;fontSize=12;startSize=8;endSize=8;curved=1;" edge="1" parent="nun3F6Sf1-hT-UwbbtUc-43">
          <mxGeometry width="50" height="50" relative="1" as="geometry">
            <mxPoint x="60" y="80" as="sourcePoint" />
            <mxPoint x="60" as="targetPoint" />
          </mxGeometry>
        </mxCell>
        <mxCell id="nun3F6Sf1-hT-UwbbtUc-46" value="4" style="text;html=1;align=center;verticalAlign=middle;whiteSpace=wrap;rounded=0;fontSize=16;" vertex="1" parent="nun3F6Sf1-hT-UwbbtUc-43">
          <mxGeometry y="10" width="60" height="30" as="geometry" />
        </mxCell>
        <mxCell id="nun3F6Sf1-hT-UwbbtUc-47" value="7" style="text;html=1;align=center;verticalAlign=middle;whiteSpace=wrap;rounded=0;fontSize=16;" vertex="1" parent="nun3F6Sf1-hT-UwbbtUc-43">
          <mxGeometry x="60" y="10" width="60" height="30" as="geometry" />
        </mxCell>
        <mxCell id="nun3F6Sf1-hT-UwbbtUc-48" value="6" style="text;html=1;align=center;verticalAlign=middle;whiteSpace=wrap;rounded=0;fontSize=16;" vertex="1" parent="nun3F6Sf1-hT-UwbbtUc-43">
          <mxGeometry y="40" width="60" height="30" as="geometry" />
        </mxCell>
        <mxCell id="nun3F6Sf1-hT-UwbbtUc-49" value="9" style="text;html=1;align=center;verticalAlign=middle;whiteSpace=wrap;rounded=0;fontSize=16;" vertex="1" parent="nun3F6Sf1-hT-UwbbtUc-43">
          <mxGeometry x="60" y="40" width="60" height="30" as="geometry" />
        </mxCell>
        <mxCell id="nun3F6Sf1-hT-UwbbtUc-50" value="" style="group" connectable="0" vertex="1" parent="nun3F6Sf1-hT-UwbbtUc-42">
          <mxGeometry x="20" y="90" width="80" height="128" as="geometry" />
        </mxCell>
        <mxCell id="nun3F6Sf1-hT-UwbbtUc-51" value="13" style="ellipse;whiteSpace=wrap;html=1;aspect=fixed;" vertex="1" parent="nun3F6Sf1-hT-UwbbtUc-50">
          <mxGeometry y="48" width="80" height="80" as="geometry" />
        </mxCell>
        <mxCell id="nun3F6Sf1-hT-UwbbtUc-52" value="H=2" style="text;html=1;align=center;verticalAlign=middle;whiteSpace=wrap;rounded=0;fontSize=16;" vertex="1" parent="nun3F6Sf1-hT-UwbbtUc-50">
          <mxGeometry x="10" width="60" height="30" as="geometry" />
        </mxCell>
        <mxCell id="nun3F6Sf1-hT-UwbbtUc-53" value="" style="group" connectable="0" vertex="1" parent="1">
          <mxGeometry x="290" y="630" width="120" height="218" as="geometry" />
        </mxCell>
        <mxCell id="nun3F6Sf1-hT-UwbbtUc-54" value="" style="group" connectable="0" vertex="1" parent="nun3F6Sf1-hT-UwbbtUc-53">
          <mxGeometry width="120" height="80" as="geometry" />
        </mxCell>
        <mxCell id="nun3F6Sf1-hT-UwbbtUc-55" value="" style="endArrow=none;html=1;rounded=0;fontSize=12;startSize=8;endSize=8;curved=1;" edge="1" parent="nun3F6Sf1-hT-UwbbtUc-54">
          <mxGeometry width="50" height="50" relative="1" as="geometry">
            <mxPoint x="20" y="40" as="sourcePoint" />
            <mxPoint x="100" y="40" as="targetPoint" />
          </mxGeometry>
        </mxCell>
        <mxCell id="nun3F6Sf1-hT-UwbbtUc-56" value="" style="endArrow=none;html=1;rounded=0;fontSize=12;startSize=8;endSize=8;curved=1;" edge="1" parent="nun3F6Sf1-hT-UwbbtUc-54">
          <mxGeometry width="50" height="50" relative="1" as="geometry">
            <mxPoint x="60" y="80" as="sourcePoint" />
            <mxPoint x="60" as="targetPoint" />
          </mxGeometry>
        </mxCell>
        <mxCell id="nun3F6Sf1-hT-UwbbtUc-57" value="0" style="text;html=1;align=center;verticalAlign=middle;whiteSpace=wrap;rounded=0;fontSize=16;" vertex="1" parent="nun3F6Sf1-hT-UwbbtUc-54">
          <mxGeometry y="10" width="60" height="30" as="geometry" />
        </mxCell>
        <mxCell id="nun3F6Sf1-hT-UwbbtUc-58" value="0.5" style="text;html=1;align=center;verticalAlign=middle;whiteSpace=wrap;rounded=0;fontSize=16;" vertex="1" parent="nun3F6Sf1-hT-UwbbtUc-54">
          <mxGeometry x="60" y="10" width="60" height="30" as="geometry" />
        </mxCell>
        <mxCell id="nun3F6Sf1-hT-UwbbtUc-59" value="2" style="text;html=1;align=center;verticalAlign=middle;whiteSpace=wrap;rounded=0;fontSize=16;" vertex="1" parent="nun3F6Sf1-hT-UwbbtUc-54">
          <mxGeometry y="40" width="60" height="30" as="geometry" />
        </mxCell>
        <mxCell id="nun3F6Sf1-hT-UwbbtUc-60" value="2.5" style="text;html=1;align=center;verticalAlign=middle;whiteSpace=wrap;rounded=0;fontSize=16;" vertex="1" parent="nun3F6Sf1-hT-UwbbtUc-54">
          <mxGeometry x="60" y="40" width="60" height="30" as="geometry" />
        </mxCell>
        <mxCell id="nun3F6Sf1-hT-UwbbtUc-61" value="" style="group" connectable="0" vertex="1" parent="nun3F6Sf1-hT-UwbbtUc-53">
          <mxGeometry x="20" y="90" width="80" height="128" as="geometry" />
        </mxCell>
        <mxCell id="nun3F6Sf1-hT-UwbbtUc-62" value="1" style="ellipse;whiteSpace=wrap;html=1;aspect=fixed;" vertex="1" parent="nun3F6Sf1-hT-UwbbtUc-61">
          <mxGeometry y="48" width="80" height="80" as="geometry" />
        </mxCell>
        <mxCell id="nun3F6Sf1-hT-UwbbtUc-63" value="H=2" style="text;html=1;align=center;verticalAlign=middle;whiteSpace=wrap;rounded=0;fontSize=16;" vertex="1" parent="nun3F6Sf1-hT-UwbbtUc-61">
          <mxGeometry x="10" width="60" height="30" as="geometry" />
        </mxCell>
        <mxCell id="nun3F6Sf1-hT-UwbbtUc-64" value="" style="group" connectable="0" vertex="1" parent="1">
          <mxGeometry x="1030" y="380" width="120" height="218" as="geometry" />
        </mxCell>
        <mxCell id="nun3F6Sf1-hT-UwbbtUc-65" value="" style="group" connectable="0" vertex="1" parent="nun3F6Sf1-hT-UwbbtUc-64">
          <mxGeometry width="120" height="80" as="geometry" />
        </mxCell>
        <mxCell id="nun3F6Sf1-hT-UwbbtUc-66" value="" style="endArrow=none;html=1;rounded=0;fontSize=12;startSize=8;endSize=8;curved=1;" edge="1" parent="nun3F6Sf1-hT-UwbbtUc-65">
          <mxGeometry width="50" height="50" relative="1" as="geometry">
            <mxPoint x="20" y="40" as="sourcePoint" />
            <mxPoint x="100" y="40" as="targetPoint" />
          </mxGeometry>
        </mxCell>
        <mxCell id="nun3F6Sf1-hT-UwbbtUc-67" value="" style="endArrow=none;html=1;rounded=0;fontSize=12;startSize=8;endSize=8;curved=1;" edge="1" parent="nun3F6Sf1-hT-UwbbtUc-65">
          <mxGeometry width="50" height="50" relative="1" as="geometry">
            <mxPoint x="60" y="80" as="sourcePoint" />
            <mxPoint x="60" as="targetPoint" />
          </mxGeometry>
        </mxCell>
        <mxCell id="nun3F6Sf1-hT-UwbbtUc-68" value="7" style="text;html=1;align=center;verticalAlign=middle;whiteSpace=wrap;rounded=0;fontSize=16;" vertex="1" parent="nun3F6Sf1-hT-UwbbtUc-65">
          <mxGeometry y="10" width="60" height="30" as="geometry" />
        </mxCell>
        <mxCell id="nun3F6Sf1-hT-UwbbtUc-69" value="8.5" style="text;html=1;align=center;verticalAlign=middle;whiteSpace=wrap;rounded=0;fontSize=16;" vertex="1" parent="nun3F6Sf1-hT-UwbbtUc-65">
          <mxGeometry x="60" y="10" width="60" height="30" as="geometry" />
        </mxCell>
        <mxCell id="nun3F6Sf1-hT-UwbbtUc-70" value="9" style="text;html=1;align=center;verticalAlign=middle;whiteSpace=wrap;rounded=0;fontSize=16;" vertex="1" parent="nun3F6Sf1-hT-UwbbtUc-65">
          <mxGeometry y="40" width="60" height="30" as="geometry" />
        </mxCell>
        <mxCell id="nun3F6Sf1-hT-UwbbtUc-71" value="10.5" style="text;html=1;align=center;verticalAlign=middle;whiteSpace=wrap;rounded=0;fontSize=16;" vertex="1" parent="nun3F6Sf1-hT-UwbbtUc-65">
          <mxGeometry x="60" y="40" width="60" height="30" as="geometry" />
        </mxCell>
        <mxCell id="nun3F6Sf1-hT-UwbbtUc-72" value="" style="group" connectable="0" vertex="1" parent="nun3F6Sf1-hT-UwbbtUc-64">
          <mxGeometry x="20" y="90" width="80" height="128" as="geometry" />
        </mxCell>
        <mxCell id="nun3F6Sf1-hT-UwbbtUc-73" value="18" style="ellipse;whiteSpace=wrap;html=1;aspect=fixed;" vertex="1" parent="nun3F6Sf1-hT-UwbbtUc-72">
          <mxGeometry y="48" width="80" height="80" as="geometry" />
        </mxCell>
        <mxCell id="nun3F6Sf1-hT-UwbbtUc-74" value="H=2" style="text;html=1;align=center;verticalAlign=middle;whiteSpace=wrap;rounded=0;fontSize=16;" vertex="1" parent="nun3F6Sf1-hT-UwbbtUc-72">
          <mxGeometry x="10" width="60" height="30" as="geometry" />
        </mxCell>
        <mxCell id="nun3F6Sf1-hT-UwbbtUc-75" value="" style="group" connectable="0" vertex="1" parent="1">
          <mxGeometry x="1220" y="380" width="120" height="218" as="geometry" />
        </mxCell>
        <mxCell id="nun3F6Sf1-hT-UwbbtUc-76" value="" style="group" connectable="0" vertex="1" parent="nun3F6Sf1-hT-UwbbtUc-75">
          <mxGeometry width="120" height="80" as="geometry" />
        </mxCell>
        <mxCell id="nun3F6Sf1-hT-UwbbtUc-77" value="" style="endArrow=none;html=1;rounded=0;fontSize=12;startSize=8;endSize=8;curved=1;" edge="1" parent="nun3F6Sf1-hT-UwbbtUc-76">
          <mxGeometry width="50" height="50" relative="1" as="geometry">
            <mxPoint x="20" y="40" as="sourcePoint" />
            <mxPoint x="100" y="40" as="targetPoint" />
          </mxGeometry>
        </mxCell>
        <mxCell id="nun3F6Sf1-hT-UwbbtUc-78" value="" style="endArrow=none;html=1;rounded=0;fontSize=12;startSize=8;endSize=8;curved=1;" edge="1" parent="nun3F6Sf1-hT-UwbbtUc-76">
          <mxGeometry width="50" height="50" relative="1" as="geometry">
            <mxPoint x="60" y="80" as="sourcePoint" />
            <mxPoint x="60" as="targetPoint" />
          </mxGeometry>
        </mxCell>
        <mxCell id="nun3F6Sf1-hT-UwbbtUc-79" value="8.5" style="text;html=1;align=center;verticalAlign=middle;whiteSpace=wrap;rounded=0;fontSize=16;" vertex="1" parent="nun3F6Sf1-hT-UwbbtUc-76">
          <mxGeometry y="10" width="60" height="30" as="geometry" />
        </mxCell>
        <mxCell id="nun3F6Sf1-hT-UwbbtUc-80" value="9" style="text;html=1;align=center;verticalAlign=middle;whiteSpace=wrap;rounded=0;fontSize=16;" vertex="1" parent="nun3F6Sf1-hT-UwbbtUc-76">
          <mxGeometry x="60" y="10" width="60" height="30" as="geometry" />
        </mxCell>
        <mxCell id="nun3F6Sf1-hT-UwbbtUc-81" value="10.5" style="text;html=1;align=center;verticalAlign=middle;whiteSpace=wrap;rounded=0;fontSize=16;" vertex="1" parent="nun3F6Sf1-hT-UwbbtUc-76">
          <mxGeometry y="40" width="60" height="30" as="geometry" />
        </mxCell>
        <mxCell id="nun3F6Sf1-hT-UwbbtUc-82" value="11" style="text;html=1;align=center;verticalAlign=middle;whiteSpace=wrap;rounded=0;fontSize=16;" vertex="1" parent="nun3F6Sf1-hT-UwbbtUc-76">
          <mxGeometry x="60" y="40" width="60" height="30" as="geometry" />
        </mxCell>
        <mxCell id="nun3F6Sf1-hT-UwbbtUc-83" value="" style="group" connectable="0" vertex="1" parent="nun3F6Sf1-hT-UwbbtUc-75">
          <mxGeometry x="20" y="90" width="80" height="128" as="geometry" />
        </mxCell>
        <mxCell id="nun3F6Sf1-hT-UwbbtUc-84" value="23" style="ellipse;whiteSpace=wrap;html=1;aspect=fixed;" vertex="1" parent="nun3F6Sf1-hT-UwbbtUc-83">
          <mxGeometry y="48" width="80" height="80" as="geometry" />
        </mxCell>
        <mxCell id="nun3F6Sf1-hT-UwbbtUc-85" value="H=2" style="text;html=1;align=center;verticalAlign=middle;whiteSpace=wrap;rounded=0;fontSize=16;" vertex="1" parent="nun3F6Sf1-hT-UwbbtUc-83">
          <mxGeometry x="10" width="60" height="30" as="geometry" />
        </mxCell>
        <mxCell id="nun3F6Sf1-hT-UwbbtUc-86" value="" style="group" connectable="0" vertex="1" parent="1">
          <mxGeometry x="680" y="380" width="120" height="218" as="geometry" />
        </mxCell>
        <mxCell id="nun3F6Sf1-hT-UwbbtUc-87" value="" style="group" connectable="0" vertex="1" parent="nun3F6Sf1-hT-UwbbtUc-86">
          <mxGeometry width="120" height="80" as="geometry" />
        </mxCell>
        <mxCell id="nun3F6Sf1-hT-UwbbtUc-88" value="" style="endArrow=none;html=1;rounded=0;fontSize=12;startSize=8;endSize=8;curved=1;" edge="1" parent="nun3F6Sf1-hT-UwbbtUc-87">
          <mxGeometry width="50" height="50" relative="1" as="geometry">
            <mxPoint x="20" y="40" as="sourcePoint" />
            <mxPoint x="100" y="40" as="targetPoint" />
          </mxGeometry>
        </mxCell>
        <mxCell id="nun3F6Sf1-hT-UwbbtUc-89" value="" style="endArrow=none;html=1;rounded=0;fontSize=12;startSize=8;endSize=8;curved=1;" edge="1" parent="nun3F6Sf1-hT-UwbbtUc-87">
          <mxGeometry width="50" height="50" relative="1" as="geometry">
            <mxPoint x="60" y="80" as="sourcePoint" />
            <mxPoint x="60" as="targetPoint" />
          </mxGeometry>
        </mxCell>
        <mxCell id="nun3F6Sf1-hT-UwbbtUc-90" value="5.5" style="text;html=1;align=center;verticalAlign=middle;whiteSpace=wrap;rounded=0;fontSize=16;" vertex="1" parent="nun3F6Sf1-hT-UwbbtUc-87">
          <mxGeometry y="10" width="60" height="30" as="geometry" />
        </mxCell>
        <mxCell id="nun3F6Sf1-hT-UwbbtUc-91" value="6" style="text;html=1;align=center;verticalAlign=middle;whiteSpace=wrap;rounded=0;fontSize=16;" vertex="1" parent="nun3F6Sf1-hT-UwbbtUc-87">
          <mxGeometry x="60" y="10" width="60" height="30" as="geometry" />
        </mxCell>
        <mxCell id="nun3F6Sf1-hT-UwbbtUc-92" value="7.5" style="text;html=1;align=center;verticalAlign=middle;whiteSpace=wrap;rounded=0;fontSize=16;" vertex="1" parent="nun3F6Sf1-hT-UwbbtUc-87">
          <mxGeometry y="40" width="60" height="30" as="geometry" />
        </mxCell>
        <mxCell id="nun3F6Sf1-hT-UwbbtUc-93" value="8" style="text;html=1;align=center;verticalAlign=middle;whiteSpace=wrap;rounded=0;fontSize=16;" vertex="1" parent="nun3F6Sf1-hT-UwbbtUc-87">
          <mxGeometry x="60" y="40" width="60" height="30" as="geometry" />
        </mxCell>
        <mxCell id="nun3F6Sf1-hT-UwbbtUc-94" value="" style="group" connectable="0" vertex="1" parent="nun3F6Sf1-hT-UwbbtUc-86">
          <mxGeometry x="20" y="90" width="80" height="128" as="geometry" />
        </mxCell>
        <mxCell id="nun3F6Sf1-hT-UwbbtUc-95" value="8" style="ellipse;whiteSpace=wrap;html=1;aspect=fixed;" vertex="1" parent="nun3F6Sf1-hT-UwbbtUc-94">
          <mxGeometry y="48" width="80" height="80" as="geometry" />
        </mxCell>
        <mxCell id="nun3F6Sf1-hT-UwbbtUc-96" value="H=2" style="text;html=1;align=center;verticalAlign=middle;whiteSpace=wrap;rounded=0;fontSize=16;" vertex="1" parent="nun3F6Sf1-hT-UwbbtUc-94">
          <mxGeometry x="10" width="60" height="30" as="geometry" />
        </mxCell>
        <mxCell id="nun3F6Sf1-hT-UwbbtUc-108" value="" style="group" connectable="0" vertex="1" parent="1">
          <mxGeometry x="290" y="380" width="120" height="218" as="geometry" />
        </mxCell>
        <mxCell id="nun3F6Sf1-hT-UwbbtUc-109" value="" style="group" connectable="0" vertex="1" parent="nun3F6Sf1-hT-UwbbtUc-108">
          <mxGeometry width="120" height="80" as="geometry" />
        </mxCell>
        <mxCell id="nun3F6Sf1-hT-UwbbtUc-110" value="" style="endArrow=none;html=1;rounded=0;fontSize=12;startSize=8;endSize=8;curved=1;" edge="1" parent="nun3F6Sf1-hT-UwbbtUc-109">
          <mxGeometry width="50" height="50" relative="1" as="geometry">
            <mxPoint x="20" y="40" as="sourcePoint" />
            <mxPoint x="100" y="40" as="targetPoint" />
          </mxGeometry>
        </mxCell>
        <mxCell id="nun3F6Sf1-hT-UwbbtUc-111" value="" style="endArrow=none;html=1;rounded=0;fontSize=12;startSize=8;endSize=8;curved=1;" edge="1" parent="nun3F6Sf1-hT-UwbbtUc-109">
          <mxGeometry width="50" height="50" relative="1" as="geometry">
            <mxPoint x="60" y="80" as="sourcePoint" />
            <mxPoint x="60" as="targetPoint" />
          </mxGeometry>
        </mxCell>
        <mxCell id="nun3F6Sf1-hT-UwbbtUc-112" value="0" style="text;html=1;align=center;verticalAlign=middle;whiteSpace=wrap;rounded=0;fontSize=16;" vertex="1" parent="nun3F6Sf1-hT-UwbbtUc-109">
          <mxGeometry y="10" width="60" height="30" as="geometry" />
        </mxCell>
        <mxCell id="nun3F6Sf1-hT-UwbbtUc-113" value="0.5" style="text;html=1;align=center;verticalAlign=middle;whiteSpace=wrap;rounded=0;fontSize=16;" vertex="1" parent="nun3F6Sf1-hT-UwbbtUc-109">
          <mxGeometry x="60" y="10" width="60" height="30" as="geometry" />
        </mxCell>
        <mxCell id="nun3F6Sf1-hT-UwbbtUc-114" value="2" style="text;html=1;align=center;verticalAlign=middle;whiteSpace=wrap;rounded=0;fontSize=16;" vertex="1" parent="nun3F6Sf1-hT-UwbbtUc-109">
          <mxGeometry y="40" width="60" height="30" as="geometry" />
        </mxCell>
        <mxCell id="nun3F6Sf1-hT-UwbbtUc-115" value="2.5" style="text;html=1;align=center;verticalAlign=middle;whiteSpace=wrap;rounded=0;fontSize=16;" vertex="1" parent="nun3F6Sf1-hT-UwbbtUc-109">
          <mxGeometry x="60" y="40" width="60" height="30" as="geometry" />
        </mxCell>
        <mxCell id="nun3F6Sf1-hT-UwbbtUc-116" value="" style="group" connectable="0" vertex="1" parent="nun3F6Sf1-hT-UwbbtUc-108">
          <mxGeometry x="20" y="90" width="80" height="128" as="geometry" />
        </mxCell>
        <mxCell id="nun3F6Sf1-hT-UwbbtUc-117" value="2" style="ellipse;whiteSpace=wrap;html=1;aspect=fixed;" vertex="1" parent="nun3F6Sf1-hT-UwbbtUc-116">
          <mxGeometry y="48" width="80" height="80" as="geometry" />
        </mxCell>
        <mxCell id="nun3F6Sf1-hT-UwbbtUc-118" value="H=2" style="text;html=1;align=center;verticalAlign=middle;whiteSpace=wrap;rounded=0;fontSize=16;" vertex="1" parent="nun3F6Sf1-hT-UwbbtUc-116">
          <mxGeometry x="10" width="60" height="30" as="geometry" />
        </mxCell>
        <mxCell id="nun3F6Sf1-hT-UwbbtUc-130" value="" style="group" connectable="0" vertex="1" parent="1">
          <mxGeometry x="1220" y="630" width="120" height="218" as="geometry" />
        </mxCell>
        <mxCell id="nun3F6Sf1-hT-UwbbtUc-131" value="" style="group" connectable="0" vertex="1" parent="nun3F6Sf1-hT-UwbbtUc-130">
          <mxGeometry width="120" height="80" as="geometry" />
        </mxCell>
        <mxCell id="nun3F6Sf1-hT-UwbbtUc-132" value="" style="endArrow=none;html=1;rounded=0;fontSize=12;startSize=8;endSize=8;curved=1;" edge="1" parent="nun3F6Sf1-hT-UwbbtUc-131">
          <mxGeometry width="50" height="50" relative="1" as="geometry">
            <mxPoint x="20" y="40" as="sourcePoint" />
            <mxPoint x="100" y="40" as="targetPoint" />
          </mxGeometry>
        </mxCell>
        <mxCell id="nun3F6Sf1-hT-UwbbtUc-133" value="" style="endArrow=none;html=1;rounded=0;fontSize=12;startSize=8;endSize=8;curved=1;" edge="1" parent="nun3F6Sf1-hT-UwbbtUc-131">
          <mxGeometry width="50" height="50" relative="1" as="geometry">
            <mxPoint x="60" y="80" as="sourcePoint" />
            <mxPoint x="60" as="targetPoint" />
          </mxGeometry>
        </mxCell>
        <mxCell id="nun3F6Sf1-hT-UwbbtUc-134" value="8" style="text;html=1;align=center;verticalAlign=middle;whiteSpace=wrap;rounded=0;fontSize=16;" vertex="1" parent="nun3F6Sf1-hT-UwbbtUc-131">
          <mxGeometry y="10" width="60" height="30" as="geometry" />
        </mxCell>
        <mxCell id="nun3F6Sf1-hT-UwbbtUc-135" value="9" style="text;html=1;align=center;verticalAlign=middle;whiteSpace=wrap;rounded=0;fontSize=16;" vertex="1" parent="nun3F6Sf1-hT-UwbbtUc-131">
          <mxGeometry x="60" y="10" width="60" height="30" as="geometry" />
        </mxCell>
        <mxCell id="nun3F6Sf1-hT-UwbbtUc-136" value="10" style="text;html=1;align=center;verticalAlign=middle;whiteSpace=wrap;rounded=0;fontSize=16;" vertex="1" parent="nun3F6Sf1-hT-UwbbtUc-131">
          <mxGeometry y="40" width="60" height="30" as="geometry" />
        </mxCell>
        <mxCell id="nun3F6Sf1-hT-UwbbtUc-137" value="11" style="text;html=1;align=center;verticalAlign=middle;whiteSpace=wrap;rounded=0;fontSize=16;" vertex="1" parent="nun3F6Sf1-hT-UwbbtUc-131">
          <mxGeometry x="60" y="40" width="60" height="30" as="geometry" />
        </mxCell>
        <mxCell id="nun3F6Sf1-hT-UwbbtUc-138" value="" style="group" connectable="0" vertex="1" parent="nun3F6Sf1-hT-UwbbtUc-130">
          <mxGeometry x="20" y="90" width="80" height="128" as="geometry" />
        </mxCell>
        <mxCell id="nun3F6Sf1-hT-UwbbtUc-139" value="24" style="ellipse;whiteSpace=wrap;html=1;aspect=fixed;" vertex="1" parent="nun3F6Sf1-hT-UwbbtUc-138">
          <mxGeometry y="48" width="80" height="80" as="geometry" />
        </mxCell>
        <mxCell id="nun3F6Sf1-hT-UwbbtUc-140" value="H=2" style="text;html=1;align=center;verticalAlign=middle;whiteSpace=wrap;rounded=0;fontSize=16;" vertex="1" parent="nun3F6Sf1-hT-UwbbtUc-138">
          <mxGeometry x="10" width="60" height="30" as="geometry" />
        </mxCell>
        <mxCell id="nun3F6Sf1-hT-UwbbtUc-141" value="" style="group" connectable="0" vertex="1" parent="1">
          <mxGeometry x="850" y="630" width="120" height="218" as="geometry" />
        </mxCell>
        <mxCell id="nun3F6Sf1-hT-UwbbtUc-142" value="" style="group" connectable="0" vertex="1" parent="nun3F6Sf1-hT-UwbbtUc-141">
          <mxGeometry width="120" height="80" as="geometry" />
        </mxCell>
        <mxCell id="nun3F6Sf1-hT-UwbbtUc-143" value="" style="endArrow=none;html=1;rounded=0;fontSize=12;startSize=8;endSize=8;curved=1;" edge="1" parent="nun3F6Sf1-hT-UwbbtUc-142">
          <mxGeometry width="50" height="50" relative="1" as="geometry">
            <mxPoint x="20" y="40" as="sourcePoint" />
            <mxPoint x="100" y="40" as="targetPoint" />
          </mxGeometry>
        </mxCell>
        <mxCell id="nun3F6Sf1-hT-UwbbtUc-144" value="" style="endArrow=none;html=1;rounded=0;fontSize=12;startSize=8;endSize=8;curved=1;" edge="1" parent="nun3F6Sf1-hT-UwbbtUc-142">
          <mxGeometry width="50" height="50" relative="1" as="geometry">
            <mxPoint x="60" y="80" as="sourcePoint" />
            <mxPoint x="60" as="targetPoint" />
          </mxGeometry>
        </mxCell>
        <mxCell id="nun3F6Sf1-hT-UwbbtUc-145" value="4.5" style="text;html=1;align=center;verticalAlign=middle;whiteSpace=wrap;rounded=0;fontSize=16;" vertex="1" parent="nun3F6Sf1-hT-UwbbtUc-142">
          <mxGeometry y="10" width="60" height="30" as="geometry" />
        </mxCell>
        <mxCell id="nun3F6Sf1-hT-UwbbtUc-146" value="7.5" style="text;html=1;align=center;verticalAlign=middle;whiteSpace=wrap;rounded=0;fontSize=16;" vertex="1" parent="nun3F6Sf1-hT-UwbbtUc-142">
          <mxGeometry x="60" y="10" width="60" height="30" as="geometry" />
        </mxCell>
        <mxCell id="nun3F6Sf1-hT-UwbbtUc-147" value="6.5" style="text;html=1;align=center;verticalAlign=middle;whiteSpace=wrap;rounded=0;fontSize=16;" vertex="1" parent="nun3F6Sf1-hT-UwbbtUc-142">
          <mxGeometry y="40" width="60" height="30" as="geometry" />
        </mxCell>
        <mxCell id="nun3F6Sf1-hT-UwbbtUc-148" value="9.5" style="text;html=1;align=center;verticalAlign=middle;whiteSpace=wrap;rounded=0;fontSize=16;" vertex="1" parent="nun3F6Sf1-hT-UwbbtUc-142">
          <mxGeometry x="60" y="40" width="60" height="30" as="geometry" />
        </mxCell>
        <mxCell id="nun3F6Sf1-hT-UwbbtUc-149" value="" style="group" connectable="0" vertex="1" parent="nun3F6Sf1-hT-UwbbtUc-141">
          <mxGeometry x="20" y="90" width="80" height="128" as="geometry" />
        </mxCell>
        <mxCell id="nun3F6Sf1-hT-UwbbtUc-150" value="9" style="ellipse;whiteSpace=wrap;html=1;aspect=fixed;" vertex="1" parent="nun3F6Sf1-hT-UwbbtUc-149">
          <mxGeometry y="48" width="80" height="80" as="geometry" />
        </mxCell>
        <mxCell id="nun3F6Sf1-hT-UwbbtUc-151" value="H=2" style="text;html=1;align=center;verticalAlign=middle;whiteSpace=wrap;rounded=0;fontSize=16;" vertex="1" parent="nun3F6Sf1-hT-UwbbtUc-149">
          <mxGeometry x="10" width="60" height="30" as="geometry" />
        </mxCell>
        <mxCell id="nun3F6Sf1-hT-UwbbtUc-152" value="" style="group" connectable="0" vertex="1" parent="1">
          <mxGeometry x="850" y="900" width="120" height="218" as="geometry" />
        </mxCell>
        <mxCell id="nun3F6Sf1-hT-UwbbtUc-153" value="" style="group" connectable="0" vertex="1" parent="nun3F6Sf1-hT-UwbbtUc-152">
          <mxGeometry width="120" height="80" as="geometry" />
        </mxCell>
        <mxCell id="nun3F6Sf1-hT-UwbbtUc-154" value="" style="endArrow=none;html=1;rounded=0;fontSize=12;startSize=8;endSize=8;curved=1;" edge="1" parent="nun3F6Sf1-hT-UwbbtUc-153">
          <mxGeometry width="50" height="50" relative="1" as="geometry">
            <mxPoint x="20" y="40" as="sourcePoint" />
            <mxPoint x="100" y="40" as="targetPoint" />
          </mxGeometry>
        </mxCell>
        <mxCell id="nun3F6Sf1-hT-UwbbtUc-155" value="" style="endArrow=none;html=1;rounded=0;fontSize=12;startSize=8;endSize=8;curved=1;" edge="1" parent="nun3F6Sf1-hT-UwbbtUc-153">
          <mxGeometry width="50" height="50" relative="1" as="geometry">
            <mxPoint x="60" y="80" as="sourcePoint" />
            <mxPoint x="60" as="targetPoint" />
          </mxGeometry>
        </mxCell>
        <mxCell id="nun3F6Sf1-hT-UwbbtUc-156" value="7" style="text;html=1;align=center;verticalAlign=middle;whiteSpace=wrap;rounded=0;fontSize=16;" vertex="1" parent="nun3F6Sf1-hT-UwbbtUc-153">
          <mxGeometry y="10" width="60" height="30" as="geometry" />
        </mxCell>
        <mxCell id="nun3F6Sf1-hT-UwbbtUc-157" value="8" style="text;html=1;align=center;verticalAlign=middle;whiteSpace=wrap;rounded=0;fontSize=16;" vertex="1" parent="nun3F6Sf1-hT-UwbbtUc-153">
          <mxGeometry x="60" y="10" width="60" height="30" as="geometry" />
        </mxCell>
        <mxCell id="nun3F6Sf1-hT-UwbbtUc-158" value="9" style="text;html=1;align=center;verticalAlign=middle;whiteSpace=wrap;rounded=0;fontSize=16;" vertex="1" parent="nun3F6Sf1-hT-UwbbtUc-153">
          <mxGeometry y="40" width="60" height="30" as="geometry" />
        </mxCell>
        <mxCell id="nun3F6Sf1-hT-UwbbtUc-159" value="10" style="text;html=1;align=center;verticalAlign=middle;whiteSpace=wrap;rounded=0;fontSize=16;" vertex="1" parent="nun3F6Sf1-hT-UwbbtUc-153">
          <mxGeometry x="60" y="40" width="60" height="30" as="geometry" />
        </mxCell>
        <mxCell id="nun3F6Sf1-hT-UwbbtUc-160" value="" style="group" connectable="0" vertex="1" parent="nun3F6Sf1-hT-UwbbtUc-152">
          <mxGeometry x="20" y="90" width="80" height="128" as="geometry" />
        </mxCell>
        <mxCell id="nun3F6Sf1-hT-UwbbtUc-161" value="15" style="ellipse;whiteSpace=wrap;html=1;aspect=fixed;" vertex="1" parent="nun3F6Sf1-hT-UwbbtUc-160">
          <mxGeometry y="48" width="80" height="80" as="geometry" />
        </mxCell>
        <mxCell id="nun3F6Sf1-hT-UwbbtUc-162" value="H=2" style="text;html=1;align=center;verticalAlign=middle;whiteSpace=wrap;rounded=0;fontSize=16;" vertex="1" parent="nun3F6Sf1-hT-UwbbtUc-160">
          <mxGeometry x="10" width="60" height="30" as="geometry" />
        </mxCell>
        <mxCell id="nun3F6Sf1-hT-UwbbtUc-163" value="" style="group" connectable="0" vertex="1" parent="1">
          <mxGeometry x="290" y="110" width="120" height="218" as="geometry" />
        </mxCell>
        <mxCell id="nun3F6Sf1-hT-UwbbtUc-164" value="" style="group" connectable="0" vertex="1" parent="nun3F6Sf1-hT-UwbbtUc-163">
          <mxGeometry width="120" height="80" as="geometry" />
        </mxCell>
        <mxCell id="nun3F6Sf1-hT-UwbbtUc-165" value="" style="endArrow=none;html=1;rounded=0;fontSize=12;startSize=8;endSize=8;curved=1;" edge="1" parent="nun3F6Sf1-hT-UwbbtUc-164">
          <mxGeometry width="50" height="50" relative="1" as="geometry">
            <mxPoint x="20" y="40" as="sourcePoint" />
            <mxPoint x="100" y="40" as="targetPoint" />
          </mxGeometry>
        </mxCell>
        <mxCell id="nun3F6Sf1-hT-UwbbtUc-166" value="" style="endArrow=none;html=1;rounded=0;fontSize=12;startSize=8;endSize=8;curved=1;" edge="1" parent="nun3F6Sf1-hT-UwbbtUc-164">
          <mxGeometry width="50" height="50" relative="1" as="geometry">
            <mxPoint x="60" y="80" as="sourcePoint" />
            <mxPoint x="60" as="targetPoint" />
          </mxGeometry>
        </mxCell>
        <mxCell id="nun3F6Sf1-hT-UwbbtUc-167" value="0" style="text;html=1;align=center;verticalAlign=middle;whiteSpace=wrap;rounded=0;fontSize=16;" vertex="1" parent="nun3F6Sf1-hT-UwbbtUc-164">
          <mxGeometry y="10" width="60" height="30" as="geometry" />
        </mxCell>
        <mxCell id="nun3F6Sf1-hT-UwbbtUc-168" value="0.5" style="text;html=1;align=center;verticalAlign=middle;whiteSpace=wrap;rounded=0;fontSize=16;" vertex="1" parent="nun3F6Sf1-hT-UwbbtUc-164">
          <mxGeometry x="60" y="10" width="60" height="30" as="geometry" />
        </mxCell>
        <mxCell id="nun3F6Sf1-hT-UwbbtUc-169" value="1,5" style="text;html=1;align=center;verticalAlign=middle;whiteSpace=wrap;rounded=0;fontSize=16;" vertex="1" parent="nun3F6Sf1-hT-UwbbtUc-164">
          <mxGeometry y="40" width="60" height="30" as="geometry" />
        </mxCell>
        <mxCell id="nun3F6Sf1-hT-UwbbtUc-170" value="2" style="text;html=1;align=center;verticalAlign=middle;whiteSpace=wrap;rounded=0;fontSize=16;" vertex="1" parent="nun3F6Sf1-hT-UwbbtUc-164">
          <mxGeometry x="60" y="40" width="60" height="30" as="geometry" />
        </mxCell>
        <mxCell id="nun3F6Sf1-hT-UwbbtUc-171" value="" style="group" connectable="0" vertex="1" parent="nun3F6Sf1-hT-UwbbtUc-163">
          <mxGeometry x="20" y="90" width="80" height="128" as="geometry" />
        </mxCell>
        <mxCell id="nun3F6Sf1-hT-UwbbtUc-172" value="3" style="ellipse;whiteSpace=wrap;html=1;aspect=fixed;" vertex="1" parent="nun3F6Sf1-hT-UwbbtUc-171">
          <mxGeometry y="48" width="80" height="80" as="geometry" />
        </mxCell>
        <mxCell id="nun3F6Sf1-hT-UwbbtUc-173" value="H=1.5" style="text;html=1;align=center;verticalAlign=middle;whiteSpace=wrap;rounded=0;fontSize=16;" vertex="1" parent="nun3F6Sf1-hT-UwbbtUc-171">
          <mxGeometry x="10" width="60" height="30" as="geometry" />
        </mxCell>
        <mxCell id="nun3F6Sf1-hT-UwbbtUc-174" value="" style="group" connectable="0" vertex="1" parent="1">
          <mxGeometry x="1040" y="630" width="120" height="218" as="geometry" />
        </mxCell>
        <mxCell id="nun3F6Sf1-hT-UwbbtUc-175" value="" style="group" connectable="0" vertex="1" parent="nun3F6Sf1-hT-UwbbtUc-174">
          <mxGeometry width="120" height="80" as="geometry" />
        </mxCell>
        <mxCell id="nun3F6Sf1-hT-UwbbtUc-176" value="" style="endArrow=none;html=1;rounded=0;fontSize=12;startSize=8;endSize=8;curved=1;" edge="1" parent="nun3F6Sf1-hT-UwbbtUc-175">
          <mxGeometry width="50" height="50" relative="1" as="geometry">
            <mxPoint x="20" y="40" as="sourcePoint" />
            <mxPoint x="100" y="40" as="targetPoint" />
          </mxGeometry>
        </mxCell>
        <mxCell id="nun3F6Sf1-hT-UwbbtUc-177" value="" style="endArrow=none;html=1;rounded=0;fontSize=12;startSize=8;endSize=8;curved=1;" edge="1" parent="nun3F6Sf1-hT-UwbbtUc-175">
          <mxGeometry width="50" height="50" relative="1" as="geometry">
            <mxPoint x="60" y="80" as="sourcePoint" />
            <mxPoint x="60" as="targetPoint" />
          </mxGeometry>
        </mxCell>
        <mxCell id="nun3F6Sf1-hT-UwbbtUc-178" value="7.5" style="text;html=1;align=center;verticalAlign=middle;whiteSpace=wrap;rounded=0;fontSize=16;" vertex="1" parent="nun3F6Sf1-hT-UwbbtUc-175">
          <mxGeometry y="10" width="60" height="30" as="geometry" />
        </mxCell>
        <mxCell id="nun3F6Sf1-hT-UwbbtUc-179" value="8" style="text;html=1;align=center;verticalAlign=middle;whiteSpace=wrap;rounded=0;fontSize=16;" vertex="1" parent="nun3F6Sf1-hT-UwbbtUc-175">
          <mxGeometry x="60" y="10" width="60" height="30" as="geometry" />
        </mxCell>
        <mxCell id="nun3F6Sf1-hT-UwbbtUc-180" value="9.5" style="text;html=1;align=center;verticalAlign=middle;whiteSpace=wrap;rounded=0;fontSize=16;" vertex="1" parent="nun3F6Sf1-hT-UwbbtUc-175">
          <mxGeometry y="40" width="60" height="30" as="geometry" />
        </mxCell>
        <mxCell id="nun3F6Sf1-hT-UwbbtUc-181" value="10" style="text;html=1;align=center;verticalAlign=middle;whiteSpace=wrap;rounded=0;fontSize=16;" vertex="1" parent="nun3F6Sf1-hT-UwbbtUc-175">
          <mxGeometry x="60" y="40" width="60" height="30" as="geometry" />
        </mxCell>
        <mxCell id="nun3F6Sf1-hT-UwbbtUc-182" value="" style="group" connectable="0" vertex="1" parent="nun3F6Sf1-hT-UwbbtUc-174">
          <mxGeometry x="20" y="90" width="80" height="128" as="geometry" />
        </mxCell>
        <mxCell id="nun3F6Sf1-hT-UwbbtUc-183" value="20" style="ellipse;whiteSpace=wrap;html=1;aspect=fixed;" vertex="1" parent="nun3F6Sf1-hT-UwbbtUc-182">
          <mxGeometry y="48" width="80" height="80" as="geometry" />
        </mxCell>
        <mxCell id="nun3F6Sf1-hT-UwbbtUc-184" value="H=2" style="text;html=1;align=center;verticalAlign=middle;whiteSpace=wrap;rounded=0;fontSize=16;" vertex="1" parent="nun3F6Sf1-hT-UwbbtUc-182">
          <mxGeometry x="10" width="60" height="30" as="geometry" />
        </mxCell>
        <mxCell id="nun3F6Sf1-hT-UwbbtUc-185" value="" style="group" connectable="0" vertex="1" parent="1">
          <mxGeometry x="1040" y="900" width="120" height="218" as="geometry" />
        </mxCell>
        <mxCell id="nun3F6Sf1-hT-UwbbtUc-186" value="" style="group" connectable="0" vertex="1" parent="nun3F6Sf1-hT-UwbbtUc-185">
          <mxGeometry width="120" height="80" as="geometry" />
        </mxCell>
        <mxCell id="nun3F6Sf1-hT-UwbbtUc-187" value="" style="endArrow=none;html=1;rounded=0;fontSize=12;startSize=8;endSize=8;curved=1;" edge="1" parent="nun3F6Sf1-hT-UwbbtUc-186">
          <mxGeometry width="50" height="50" relative="1" as="geometry">
            <mxPoint x="20" y="40" as="sourcePoint" />
            <mxPoint x="100" y="40" as="targetPoint" />
          </mxGeometry>
        </mxCell>
        <mxCell id="nun3F6Sf1-hT-UwbbtUc-188" value="" style="endArrow=none;html=1;rounded=0;fontSize=12;startSize=8;endSize=8;curved=1;" edge="1" parent="nun3F6Sf1-hT-UwbbtUc-186">
          <mxGeometry width="50" height="50" relative="1" as="geometry">
            <mxPoint x="60" y="80" as="sourcePoint" />
            <mxPoint x="60" as="targetPoint" />
          </mxGeometry>
        </mxCell>
        <mxCell id="nun3F6Sf1-hT-UwbbtUc-189" value="8" style="text;html=1;align=center;verticalAlign=middle;whiteSpace=wrap;rounded=0;fontSize=16;" vertex="1" parent="nun3F6Sf1-hT-UwbbtUc-186">
          <mxGeometry y="10" width="60" height="30" as="geometry" />
        </mxCell>
        <mxCell id="nun3F6Sf1-hT-UwbbtUc-190" value="9" style="text;html=1;align=center;verticalAlign=middle;whiteSpace=wrap;rounded=0;fontSize=16;" vertex="1" parent="nun3F6Sf1-hT-UwbbtUc-186">
          <mxGeometry x="60" y="10" width="60" height="30" as="geometry" />
        </mxCell>
        <mxCell id="nun3F6Sf1-hT-UwbbtUc-191" value="10" style="text;html=1;align=center;verticalAlign=middle;whiteSpace=wrap;rounded=0;fontSize=16;" vertex="1" parent="nun3F6Sf1-hT-UwbbtUc-186">
          <mxGeometry y="40" width="60" height="30" as="geometry" />
        </mxCell>
        <mxCell id="nun3F6Sf1-hT-UwbbtUc-192" value="11" style="text;html=1;align=center;verticalAlign=middle;whiteSpace=wrap;rounded=0;fontSize=16;" vertex="1" parent="nun3F6Sf1-hT-UwbbtUc-186">
          <mxGeometry x="60" y="40" width="60" height="30" as="geometry" />
        </mxCell>
        <mxCell id="nun3F6Sf1-hT-UwbbtUc-193" value="" style="group" connectable="0" vertex="1" parent="nun3F6Sf1-hT-UwbbtUc-185">
          <mxGeometry x="20" y="90" width="80" height="128" as="geometry" />
        </mxCell>
        <mxCell id="nun3F6Sf1-hT-UwbbtUc-194" value="25" style="ellipse;whiteSpace=wrap;html=1;aspect=fixed;" vertex="1" parent="nun3F6Sf1-hT-UwbbtUc-193">
          <mxGeometry y="48" width="80" height="80" as="geometry" />
        </mxCell>
        <mxCell id="nun3F6Sf1-hT-UwbbtUc-195" value="H=2" style="text;html=1;align=center;verticalAlign=middle;whiteSpace=wrap;rounded=0;fontSize=16;" vertex="1" parent="nun3F6Sf1-hT-UwbbtUc-193">
          <mxGeometry x="10" width="60" height="30" as="geometry" />
        </mxCell>
        <mxCell id="nun3F6Sf1-hT-UwbbtUc-196" value="" style="group" connectable="0" vertex="1" parent="1">
          <mxGeometry x="290" y="900" width="120" height="218" as="geometry" />
        </mxCell>
        <mxCell id="nun3F6Sf1-hT-UwbbtUc-197" value="" style="group" connectable="0" vertex="1" parent="nun3F6Sf1-hT-UwbbtUc-196">
          <mxGeometry width="120" height="80" as="geometry" />
        </mxCell>
        <mxCell id="nun3F6Sf1-hT-UwbbtUc-198" value="" style="endArrow=none;html=1;rounded=0;fontSize=12;startSize=8;endSize=8;curved=1;" edge="1" parent="nun3F6Sf1-hT-UwbbtUc-197">
          <mxGeometry width="50" height="50" relative="1" as="geometry">
            <mxPoint x="20" y="40" as="sourcePoint" />
            <mxPoint x="100" y="40" as="targetPoint" />
          </mxGeometry>
        </mxCell>
        <mxCell id="nun3F6Sf1-hT-UwbbtUc-199" value="" style="endArrow=none;html=1;rounded=0;fontSize=12;startSize=8;endSize=8;curved=1;" edge="1" parent="nun3F6Sf1-hT-UwbbtUc-197">
          <mxGeometry width="50" height="50" relative="1" as="geometry">
            <mxPoint x="60" y="80" as="sourcePoint" />
            <mxPoint x="60" as="targetPoint" />
          </mxGeometry>
        </mxCell>
        <mxCell id="nun3F6Sf1-hT-UwbbtUc-200" value="0" style="text;html=1;align=center;verticalAlign=middle;whiteSpace=wrap;rounded=0;fontSize=16;" vertex="1" parent="nun3F6Sf1-hT-UwbbtUc-197">
          <mxGeometry y="10" width="60" height="30" as="geometry" />
        </mxCell>
        <mxCell id="nun3F6Sf1-hT-UwbbtUc-201" value="3" style="text;html=1;align=center;verticalAlign=middle;whiteSpace=wrap;rounded=0;fontSize=16;" vertex="1" parent="nun3F6Sf1-hT-UwbbtUc-197">
          <mxGeometry x="60" y="10" width="60" height="30" as="geometry" />
        </mxCell>
        <mxCell id="nun3F6Sf1-hT-UwbbtUc-202" value="2" style="text;html=1;align=center;verticalAlign=middle;whiteSpace=wrap;rounded=0;fontSize=16;" vertex="1" parent="nun3F6Sf1-hT-UwbbtUc-197">
          <mxGeometry y="40" width="60" height="30" as="geometry" />
        </mxCell>
        <mxCell id="nun3F6Sf1-hT-UwbbtUc-203" value="5" style="text;html=1;align=center;verticalAlign=middle;whiteSpace=wrap;rounded=0;fontSize=16;" vertex="1" parent="nun3F6Sf1-hT-UwbbtUc-197">
          <mxGeometry x="60" y="40" width="60" height="30" as="geometry" />
        </mxCell>
        <mxCell id="nun3F6Sf1-hT-UwbbtUc-204" value="" style="group" connectable="0" vertex="1" parent="nun3F6Sf1-hT-UwbbtUc-196">
          <mxGeometry x="20" y="90" width="80" height="128" as="geometry" />
        </mxCell>
        <mxCell id="nun3F6Sf1-hT-UwbbtUc-205" value="10" style="ellipse;whiteSpace=wrap;html=1;aspect=fixed;" vertex="1" parent="nun3F6Sf1-hT-UwbbtUc-204">
          <mxGeometry y="48" width="80" height="80" as="geometry" />
        </mxCell>
        <mxCell id="nun3F6Sf1-hT-UwbbtUc-206" value="H=2" style="text;html=1;align=center;verticalAlign=middle;whiteSpace=wrap;rounded=0;fontSize=16;" vertex="1" parent="nun3F6Sf1-hT-UwbbtUc-204">
          <mxGeometry x="10" width="60" height="30" as="geometry" />
        </mxCell>
        <mxCell id="nun3F6Sf1-hT-UwbbtUc-207" value="" style="group" connectable="0" vertex="1" parent="1">
          <mxGeometry x="680" y="110" width="120" height="218" as="geometry" />
        </mxCell>
        <mxCell id="nun3F6Sf1-hT-UwbbtUc-208" value="" style="group" connectable="0" vertex="1" parent="nun3F6Sf1-hT-UwbbtUc-207">
          <mxGeometry width="120" height="80" as="geometry" />
        </mxCell>
        <mxCell id="nun3F6Sf1-hT-UwbbtUc-209" value="" style="endArrow=none;html=1;rounded=0;fontSize=12;startSize=8;endSize=8;curved=1;" edge="1" parent="nun3F6Sf1-hT-UwbbtUc-208">
          <mxGeometry width="50" height="50" relative="1" as="geometry">
            <mxPoint x="20" y="40" as="sourcePoint" />
            <mxPoint x="100" y="40" as="targetPoint" />
          </mxGeometry>
        </mxCell>
        <mxCell id="nun3F6Sf1-hT-UwbbtUc-210" value="" style="endArrow=none;html=1;rounded=0;fontSize=12;startSize=8;endSize=8;curved=1;" edge="1" parent="nun3F6Sf1-hT-UwbbtUc-208">
          <mxGeometry width="50" height="50" relative="1" as="geometry">
            <mxPoint x="60" y="80" as="sourcePoint" />
            <mxPoint x="60" as="targetPoint" />
          </mxGeometry>
        </mxCell>
        <mxCell id="nun3F6Sf1-hT-UwbbtUc-211" value="4.5" style="text;html=1;align=center;verticalAlign=middle;whiteSpace=wrap;rounded=0;fontSize=16;" vertex="1" parent="nun3F6Sf1-hT-UwbbtUc-208">
          <mxGeometry y="10" width="60" height="30" as="geometry" />
        </mxCell>
        <mxCell id="nun3F6Sf1-hT-UwbbtUc-212" value="8.5" style="text;html=1;align=center;verticalAlign=middle;whiteSpace=wrap;rounded=0;fontSize=16;" vertex="1" parent="nun3F6Sf1-hT-UwbbtUc-208">
          <mxGeometry x="60" y="10" width="60" height="30" as="geometry" />
        </mxCell>
        <mxCell id="nun3F6Sf1-hT-UwbbtUc-213" value="6" style="text;html=1;align=center;verticalAlign=middle;whiteSpace=wrap;rounded=0;fontSize=16;" vertex="1" parent="nun3F6Sf1-hT-UwbbtUc-208">
          <mxGeometry y="40" width="60" height="30" as="geometry" />
        </mxCell>
        <mxCell id="nun3F6Sf1-hT-UwbbtUc-214" value="10" style="text;html=1;align=center;verticalAlign=middle;whiteSpace=wrap;rounded=0;fontSize=16;" vertex="1" parent="nun3F6Sf1-hT-UwbbtUc-208">
          <mxGeometry x="60" y="40" width="60" height="30" as="geometry" />
        </mxCell>
        <mxCell id="nun3F6Sf1-hT-UwbbtUc-215" value="" style="group" connectable="0" vertex="1" parent="nun3F6Sf1-hT-UwbbtUc-207">
          <mxGeometry x="20" y="90" width="80" height="128" as="geometry" />
        </mxCell>
        <mxCell id="nun3F6Sf1-hT-UwbbtUc-216" value="16" style="ellipse;whiteSpace=wrap;html=1;aspect=fixed;" vertex="1" parent="nun3F6Sf1-hT-UwbbtUc-215">
          <mxGeometry y="48" width="80" height="80" as="geometry" />
        </mxCell>
        <mxCell id="nun3F6Sf1-hT-UwbbtUc-217" value="H=1.5" style="text;html=1;align=center;verticalAlign=middle;whiteSpace=wrap;rounded=0;fontSize=16;" vertex="1" parent="nun3F6Sf1-hT-UwbbtUc-215">
          <mxGeometry x="10" width="60" height="30" as="geometry" />
        </mxCell>
        <mxCell id="nun3F6Sf1-hT-UwbbtUc-218" value="" style="group" connectable="0" vertex="1" parent="1">
          <mxGeometry x="490" y="630" width="120" height="218" as="geometry" />
        </mxCell>
        <mxCell id="nun3F6Sf1-hT-UwbbtUc-219" value="" style="group" connectable="0" vertex="1" parent="nun3F6Sf1-hT-UwbbtUc-218">
          <mxGeometry width="120" height="80" as="geometry" />
        </mxCell>
        <mxCell id="nun3F6Sf1-hT-UwbbtUc-220" value="" style="endArrow=none;html=1;rounded=0;fontSize=12;startSize=8;endSize=8;curved=1;" edge="1" parent="nun3F6Sf1-hT-UwbbtUc-219">
          <mxGeometry width="50" height="50" relative="1" as="geometry">
            <mxPoint x="20" y="40" as="sourcePoint" />
            <mxPoint x="100" y="40" as="targetPoint" />
          </mxGeometry>
        </mxCell>
        <mxCell id="nun3F6Sf1-hT-UwbbtUc-221" value="" style="endArrow=none;html=1;rounded=0;fontSize=12;startSize=8;endSize=8;curved=1;" edge="1" parent="nun3F6Sf1-hT-UwbbtUc-219">
          <mxGeometry width="50" height="50" relative="1" as="geometry">
            <mxPoint x="60" y="80" as="sourcePoint" />
            <mxPoint x="60" as="targetPoint" />
          </mxGeometry>
        </mxCell>
        <mxCell id="nun3F6Sf1-hT-UwbbtUc-222" value="0.5" style="text;html=1;align=center;verticalAlign=middle;whiteSpace=wrap;rounded=0;fontSize=16;" vertex="1" parent="nun3F6Sf1-hT-UwbbtUc-219">
          <mxGeometry y="10" width="60" height="30" as="geometry" />
        </mxCell>
        <mxCell id="nun3F6Sf1-hT-UwbbtUc-223" value="3.5" style="text;html=1;align=center;verticalAlign=middle;whiteSpace=wrap;rounded=0;fontSize=16;" vertex="1" parent="nun3F6Sf1-hT-UwbbtUc-219">
          <mxGeometry x="60" y="10" width="60" height="30" as="geometry" />
        </mxCell>
        <mxCell id="nun3F6Sf1-hT-UwbbtUc-224" value="2.5" style="text;html=1;align=center;verticalAlign=middle;whiteSpace=wrap;rounded=0;fontSize=16;" vertex="1" parent="nun3F6Sf1-hT-UwbbtUc-219">
          <mxGeometry y="40" width="60" height="30" as="geometry" />
        </mxCell>
        <mxCell id="nun3F6Sf1-hT-UwbbtUc-225" value="5.5" style="text;html=1;align=center;verticalAlign=middle;whiteSpace=wrap;rounded=0;fontSize=16;" vertex="1" parent="nun3F6Sf1-hT-UwbbtUc-219">
          <mxGeometry x="60" y="40" width="60" height="30" as="geometry" />
        </mxCell>
        <mxCell id="nun3F6Sf1-hT-UwbbtUc-226" value="" style="group" connectable="0" vertex="1" parent="nun3F6Sf1-hT-UwbbtUc-218">
          <mxGeometry x="20" y="90" width="80" height="128" as="geometry" />
        </mxCell>
        <mxCell id="nun3F6Sf1-hT-UwbbtUc-227" value="4" style="ellipse;whiteSpace=wrap;html=1;aspect=fixed;" vertex="1" parent="nun3F6Sf1-hT-UwbbtUc-226">
          <mxGeometry y="48" width="80" height="80" as="geometry" />
        </mxCell>
        <mxCell id="nun3F6Sf1-hT-UwbbtUc-228" value="H=2" style="text;html=1;align=center;verticalAlign=middle;whiteSpace=wrap;rounded=0;fontSize=16;" vertex="1" parent="nun3F6Sf1-hT-UwbbtUc-226">
          <mxGeometry x="10" width="60" height="30" as="geometry" />
        </mxCell>
        <mxCell id="nun3F6Sf1-hT-UwbbtUc-240" value="" style="group" connectable="0" vertex="1" parent="1">
          <mxGeometry x="850" y="110" width="120" height="218" as="geometry" />
        </mxCell>
        <mxCell id="nun3F6Sf1-hT-UwbbtUc-241" value="" style="group" connectable="0" vertex="1" parent="nun3F6Sf1-hT-UwbbtUc-240">
          <mxGeometry width="120" height="80" as="geometry" />
        </mxCell>
        <mxCell id="nun3F6Sf1-hT-UwbbtUc-242" value="" style="endArrow=none;html=1;rounded=0;fontSize=12;startSize=8;endSize=8;curved=1;" edge="1" parent="nun3F6Sf1-hT-UwbbtUc-241">
          <mxGeometry width="50" height="50" relative="1" as="geometry">
            <mxPoint x="20" y="40" as="sourcePoint" />
            <mxPoint x="100" y="40" as="targetPoint" />
          </mxGeometry>
        </mxCell>
        <mxCell id="nun3F6Sf1-hT-UwbbtUc-243" value="" style="endArrow=none;html=1;rounded=0;fontSize=12;startSize=8;endSize=8;curved=1;" edge="1" parent="nun3F6Sf1-hT-UwbbtUc-241">
          <mxGeometry width="50" height="50" relative="1" as="geometry">
            <mxPoint x="60" y="80" as="sourcePoint" />
            <mxPoint x="60" as="targetPoint" />
          </mxGeometry>
        </mxCell>
        <mxCell id="nun3F6Sf1-hT-UwbbtUc-244" value="8.5" style="text;html=1;align=center;verticalAlign=middle;whiteSpace=wrap;rounded=0;fontSize=16;" vertex="1" parent="nun3F6Sf1-hT-UwbbtUc-241">
          <mxGeometry y="10" width="60" height="30" as="geometry" />
        </mxCell>
        <mxCell id="nun3F6Sf1-hT-UwbbtUc-245" value="9.5" style="text;html=1;align=center;verticalAlign=middle;whiteSpace=wrap;rounded=0;fontSize=16;" vertex="1" parent="nun3F6Sf1-hT-UwbbtUc-241">
          <mxGeometry x="60" y="10" width="60" height="30" as="geometry" />
        </mxCell>
        <mxCell id="nun3F6Sf1-hT-UwbbtUc-246" value="10" style="text;html=1;align=center;verticalAlign=middle;whiteSpace=wrap;rounded=0;fontSize=16;" vertex="1" parent="nun3F6Sf1-hT-UwbbtUc-241">
          <mxGeometry y="40" width="60" height="30" as="geometry" />
        </mxCell>
        <mxCell id="nun3F6Sf1-hT-UwbbtUc-247" value="11" style="text;html=1;align=center;verticalAlign=middle;whiteSpace=wrap;rounded=0;fontSize=16;" vertex="1" parent="nun3F6Sf1-hT-UwbbtUc-241">
          <mxGeometry x="60" y="40" width="60" height="30" as="geometry" />
        </mxCell>
        <mxCell id="nun3F6Sf1-hT-UwbbtUc-248" value="" style="group" connectable="0" vertex="1" parent="nun3F6Sf1-hT-UwbbtUc-240">
          <mxGeometry x="20" y="90" width="80" height="128" as="geometry" />
        </mxCell>
        <mxCell id="nun3F6Sf1-hT-UwbbtUc-249" value="26" style="ellipse;whiteSpace=wrap;html=1;aspect=fixed;" vertex="1" parent="nun3F6Sf1-hT-UwbbtUc-248">
          <mxGeometry y="48" width="80" height="80" as="geometry" />
        </mxCell>
        <mxCell id="nun3F6Sf1-hT-UwbbtUc-250" value="H=1.5" style="text;html=1;align=center;verticalAlign=middle;whiteSpace=wrap;rounded=0;fontSize=16;" vertex="1" parent="nun3F6Sf1-hT-UwbbtUc-248">
          <mxGeometry x="10" width="60" height="30" as="geometry" />
        </mxCell>
        <mxCell id="nun3F6Sf1-hT-UwbbtUc-251" value="" style="group" connectable="0" vertex="1" parent="1">
          <mxGeometry x="490" y="900" width="120" height="218" as="geometry" />
        </mxCell>
        <mxCell id="nun3F6Sf1-hT-UwbbtUc-252" value="" style="group" connectable="0" vertex="1" parent="nun3F6Sf1-hT-UwbbtUc-251">
          <mxGeometry width="120" height="80" as="geometry" />
        </mxCell>
        <mxCell id="nun3F6Sf1-hT-UwbbtUc-253" value="" style="endArrow=none;html=1;rounded=0;fontSize=12;startSize=8;endSize=8;curved=1;" edge="1" parent="nun3F6Sf1-hT-UwbbtUc-252">
          <mxGeometry width="50" height="50" relative="1" as="geometry">
            <mxPoint x="20" y="40" as="sourcePoint" />
            <mxPoint x="100" y="40" as="targetPoint" />
          </mxGeometry>
        </mxCell>
        <mxCell id="nun3F6Sf1-hT-UwbbtUc-254" value="" style="endArrow=none;html=1;rounded=0;fontSize=12;startSize=8;endSize=8;curved=1;" edge="1" parent="nun3F6Sf1-hT-UwbbtUc-252">
          <mxGeometry width="50" height="50" relative="1" as="geometry">
            <mxPoint x="60" y="80" as="sourcePoint" />
            <mxPoint x="60" as="targetPoint" />
          </mxGeometry>
        </mxCell>
        <mxCell id="nun3F6Sf1-hT-UwbbtUc-255" value="3" style="text;html=1;align=center;verticalAlign=middle;whiteSpace=wrap;rounded=0;fontSize=16;" vertex="1" parent="nun3F6Sf1-hT-UwbbtUc-252">
          <mxGeometry y="10" width="60" height="30" as="geometry" />
        </mxCell>
        <mxCell id="nun3F6Sf1-hT-UwbbtUc-256" value="4" style="text;html=1;align=center;verticalAlign=middle;whiteSpace=wrap;rounded=0;fontSize=16;" vertex="1" parent="nun3F6Sf1-hT-UwbbtUc-252">
          <mxGeometry x="60" y="10" width="60" height="30" as="geometry" />
        </mxCell>
        <mxCell id="nun3F6Sf1-hT-UwbbtUc-257" value="5" style="text;html=1;align=center;verticalAlign=middle;whiteSpace=wrap;rounded=0;fontSize=16;" vertex="1" parent="nun3F6Sf1-hT-UwbbtUc-252">
          <mxGeometry y="40" width="60" height="30" as="geometry" />
        </mxCell>
        <mxCell id="nun3F6Sf1-hT-UwbbtUc-258" value="6" style="text;html=1;align=center;verticalAlign=middle;whiteSpace=wrap;rounded=0;fontSize=16;" vertex="1" parent="nun3F6Sf1-hT-UwbbtUc-252">
          <mxGeometry x="60" y="40" width="60" height="30" as="geometry" />
        </mxCell>
        <mxCell id="nun3F6Sf1-hT-UwbbtUc-259" value="" style="group" connectable="0" vertex="1" parent="nun3F6Sf1-hT-UwbbtUc-251">
          <mxGeometry x="20" y="90" width="80" height="128" as="geometry" />
        </mxCell>
        <mxCell id="nun3F6Sf1-hT-UwbbtUc-260" value="11" style="ellipse;whiteSpace=wrap;html=1;aspect=fixed;" vertex="1" parent="nun3F6Sf1-hT-UwbbtUc-259">
          <mxGeometry y="48" width="80" height="80" as="geometry" />
        </mxCell>
        <mxCell id="nun3F6Sf1-hT-UwbbtUc-261" value="H=2" style="text;html=1;align=center;verticalAlign=middle;whiteSpace=wrap;rounded=0;fontSize=16;" vertex="1" parent="nun3F6Sf1-hT-UwbbtUc-259">
          <mxGeometry x="10" width="60" height="30" as="geometry" />
        </mxCell>
        <mxCell id="nun3F6Sf1-hT-UwbbtUc-273" value="" style="group" connectable="0" vertex="1" parent="1">
          <mxGeometry x="490" y="380" width="120" height="218" as="geometry" />
        </mxCell>
        <mxCell id="nun3F6Sf1-hT-UwbbtUc-274" value="" style="group" connectable="0" vertex="1" parent="nun3F6Sf1-hT-UwbbtUc-273">
          <mxGeometry width="120" height="80" as="geometry" />
        </mxCell>
        <mxCell id="nun3F6Sf1-hT-UwbbtUc-275" value="" style="endArrow=none;html=1;rounded=0;fontSize=12;startSize=8;endSize=8;curved=1;" edge="1" parent="nun3F6Sf1-hT-UwbbtUc-274">
          <mxGeometry width="50" height="50" relative="1" as="geometry">
            <mxPoint x="20" y="40" as="sourcePoint" />
            <mxPoint x="100" y="40" as="targetPoint" />
          </mxGeometry>
        </mxCell>
        <mxCell id="nun3F6Sf1-hT-UwbbtUc-276" value="" style="endArrow=none;html=1;rounded=0;fontSize=12;startSize=8;endSize=8;curved=1;" edge="1" parent="nun3F6Sf1-hT-UwbbtUc-274">
          <mxGeometry width="50" height="50" relative="1" as="geometry">
            <mxPoint x="60" y="80" as="sourcePoint" />
            <mxPoint x="60" as="targetPoint" />
          </mxGeometry>
        </mxCell>
        <mxCell id="nun3F6Sf1-hT-UwbbtUc-277" value="0.5" style="text;html=1;align=center;verticalAlign=middle;whiteSpace=wrap;rounded=0;fontSize=16;" vertex="1" parent="nun3F6Sf1-hT-UwbbtUc-274">
          <mxGeometry y="10" width="60" height="30" as="geometry" />
        </mxCell>
        <mxCell id="nun3F6Sf1-hT-UwbbtUc-278" value="5.5" style="text;html=1;align=center;verticalAlign=middle;whiteSpace=wrap;rounded=0;fontSize=16;" vertex="1" parent="nun3F6Sf1-hT-UwbbtUc-274">
          <mxGeometry x="60" y="10" width="60" height="30" as="geometry" />
        </mxCell>
        <mxCell id="nun3F6Sf1-hT-UwbbtUc-279" value="2.5" style="text;html=1;align=center;verticalAlign=middle;whiteSpace=wrap;rounded=0;fontSize=16;" vertex="1" parent="nun3F6Sf1-hT-UwbbtUc-274">
          <mxGeometry y="40" width="60" height="30" as="geometry" />
        </mxCell>
        <mxCell id="nun3F6Sf1-hT-UwbbtUc-280" value="7.5" style="text;html=1;align=center;verticalAlign=middle;whiteSpace=wrap;rounded=0;fontSize=16;" vertex="1" parent="nun3F6Sf1-hT-UwbbtUc-274">
          <mxGeometry x="60" y="40" width="60" height="30" as="geometry" />
        </mxCell>
        <mxCell id="nun3F6Sf1-hT-UwbbtUc-281" value="" style="group" connectable="0" vertex="1" parent="nun3F6Sf1-hT-UwbbtUc-273">
          <mxGeometry x="20" y="90" width="80" height="128" as="geometry" />
        </mxCell>
        <mxCell id="nun3F6Sf1-hT-UwbbtUc-282" value="5" style="ellipse;whiteSpace=wrap;html=1;aspect=fixed;" vertex="1" parent="nun3F6Sf1-hT-UwbbtUc-281">
          <mxGeometry y="48" width="80" height="80" as="geometry" />
        </mxCell>
        <mxCell id="nun3F6Sf1-hT-UwbbtUc-283" value="H=2" style="text;html=1;align=center;verticalAlign=middle;whiteSpace=wrap;rounded=0;fontSize=16;" vertex="1" parent="nun3F6Sf1-hT-UwbbtUc-281">
          <mxGeometry x="10" width="60" height="30" as="geometry" />
        </mxCell>
        <mxCell id="nun3F6Sf1-hT-UwbbtUc-306" value="" style="group" connectable="0" vertex="1" parent="1">
          <mxGeometry x="490" y="110" width="120" height="218" as="geometry" />
        </mxCell>
        <mxCell id="nun3F6Sf1-hT-UwbbtUc-307" value="" style="group" connectable="0" vertex="1" parent="nun3F6Sf1-hT-UwbbtUc-306">
          <mxGeometry width="120" height="80" as="geometry" />
        </mxCell>
        <mxCell id="nun3F6Sf1-hT-UwbbtUc-308" value="" style="endArrow=none;html=1;rounded=0;fontSize=12;startSize=8;endSize=8;curved=1;" edge="1" parent="nun3F6Sf1-hT-UwbbtUc-307">
          <mxGeometry width="50" height="50" relative="1" as="geometry">
            <mxPoint x="20" y="40" as="sourcePoint" />
            <mxPoint x="100" y="40" as="targetPoint" />
          </mxGeometry>
        </mxCell>
        <mxCell id="nun3F6Sf1-hT-UwbbtUc-309" value="" style="endArrow=none;html=1;rounded=0;fontSize=12;startSize=8;endSize=8;curved=1;" edge="1" parent="nun3F6Sf1-hT-UwbbtUc-307">
          <mxGeometry width="50" height="50" relative="1" as="geometry">
            <mxPoint x="60" y="80" as="sourcePoint" />
            <mxPoint x="60" as="targetPoint" />
          </mxGeometry>
        </mxCell>
        <mxCell id="nun3F6Sf1-hT-UwbbtUc-310" value="0.5" style="text;html=1;align=center;verticalAlign=middle;whiteSpace=wrap;rounded=0;fontSize=16;" vertex="1" parent="nun3F6Sf1-hT-UwbbtUc-307">
          <mxGeometry y="10" width="60" height="30" as="geometry" />
        </mxCell>
        <mxCell id="nun3F6Sf1-hT-UwbbtUc-311" value="4.5" style="text;html=1;align=center;verticalAlign=middle;whiteSpace=wrap;rounded=0;fontSize=16;" vertex="1" parent="nun3F6Sf1-hT-UwbbtUc-307">
          <mxGeometry x="60" y="10" width="60" height="30" as="geometry" />
        </mxCell>
        <mxCell id="nun3F6Sf1-hT-UwbbtUc-312" value="2" style="text;html=1;align=center;verticalAlign=middle;whiteSpace=wrap;rounded=0;fontSize=16;" vertex="1" parent="nun3F6Sf1-hT-UwbbtUc-307">
          <mxGeometry y="40" width="60" height="30" as="geometry" />
        </mxCell>
        <mxCell id="nun3F6Sf1-hT-UwbbtUc-313" value="6" style="text;html=1;align=center;verticalAlign=middle;whiteSpace=wrap;rounded=0;fontSize=16;" vertex="1" parent="nun3F6Sf1-hT-UwbbtUc-307">
          <mxGeometry x="60" y="40" width="60" height="30" as="geometry" />
        </mxCell>
        <mxCell id="nun3F6Sf1-hT-UwbbtUc-314" value="" style="group" connectable="0" vertex="1" parent="nun3F6Sf1-hT-UwbbtUc-306">
          <mxGeometry x="20" y="90" width="80" height="128" as="geometry" />
        </mxCell>
        <mxCell id="nun3F6Sf1-hT-UwbbtUc-315" value="6" style="ellipse;whiteSpace=wrap;html=1;aspect=fixed;" vertex="1" parent="nun3F6Sf1-hT-UwbbtUc-314">
          <mxGeometry y="48" width="80" height="80" as="geometry" />
        </mxCell>
        <mxCell id="nun3F6Sf1-hT-UwbbtUc-316" value="H=1.5" style="text;html=1;align=center;verticalAlign=middle;whiteSpace=wrap;rounded=0;fontSize=16;" vertex="1" parent="nun3F6Sf1-hT-UwbbtUc-314">
          <mxGeometry x="10" width="60" height="30" as="geometry" />
        </mxCell>
        <mxCell id="nun3F6Sf1-hT-UwbbtUc-317" value="" style="group" connectable="0" vertex="1" parent="1">
          <mxGeometry x="850" y="380" width="120" height="218" as="geometry" />
        </mxCell>
        <mxCell id="nun3F6Sf1-hT-UwbbtUc-318" value="" style="group" connectable="0" vertex="1" parent="nun3F6Sf1-hT-UwbbtUc-317">
          <mxGeometry width="120" height="80" as="geometry" />
        </mxCell>
        <mxCell id="nun3F6Sf1-hT-UwbbtUc-319" value="" style="endArrow=none;html=1;rounded=0;fontSize=12;startSize=8;endSize=8;curved=1;" edge="1" parent="nun3F6Sf1-hT-UwbbtUc-318">
          <mxGeometry width="50" height="50" relative="1" as="geometry">
            <mxPoint x="20" y="40" as="sourcePoint" />
            <mxPoint x="100" y="40" as="targetPoint" />
          </mxGeometry>
        </mxCell>
        <mxCell id="nun3F6Sf1-hT-UwbbtUc-320" value="" style="endArrow=none;html=1;rounded=0;fontSize=12;startSize=8;endSize=8;curved=1;" edge="1" parent="nun3F6Sf1-hT-UwbbtUc-318">
          <mxGeometry width="50" height="50" relative="1" as="geometry">
            <mxPoint x="60" y="80" as="sourcePoint" />
            <mxPoint x="60" as="targetPoint" />
          </mxGeometry>
        </mxCell>
        <mxCell id="nun3F6Sf1-hT-UwbbtUc-321" value="6" style="text;html=1;align=center;verticalAlign=middle;whiteSpace=wrap;rounded=0;fontSize=16;" vertex="1" parent="nun3F6Sf1-hT-UwbbtUc-318">
          <mxGeometry y="10" width="60" height="30" as="geometry" />
        </mxCell>
        <mxCell id="nun3F6Sf1-hT-UwbbtUc-322" value="7" style="text;html=1;align=center;verticalAlign=middle;whiteSpace=wrap;rounded=0;fontSize=16;" vertex="1" parent="nun3F6Sf1-hT-UwbbtUc-318">
          <mxGeometry x="60" y="10" width="60" height="30" as="geometry" />
        </mxCell>
        <mxCell id="nun3F6Sf1-hT-UwbbtUc-323" value="8" style="text;html=1;align=center;verticalAlign=middle;whiteSpace=wrap;rounded=0;fontSize=16;" vertex="1" parent="nun3F6Sf1-hT-UwbbtUc-318">
          <mxGeometry y="40" width="60" height="30" as="geometry" />
        </mxCell>
        <mxCell id="nun3F6Sf1-hT-UwbbtUc-324" value="9" style="text;html=1;align=center;verticalAlign=middle;whiteSpace=wrap;rounded=0;fontSize=16;" vertex="1" parent="nun3F6Sf1-hT-UwbbtUc-318">
          <mxGeometry x="60" y="40" width="60" height="30" as="geometry" />
        </mxCell>
        <mxCell id="nun3F6Sf1-hT-UwbbtUc-325" value="" style="group" connectable="0" vertex="1" parent="nun3F6Sf1-hT-UwbbtUc-317">
          <mxGeometry x="20" y="90" width="80" height="128" as="geometry" />
        </mxCell>
        <mxCell id="nun3F6Sf1-hT-UwbbtUc-326" value="12" style="ellipse;whiteSpace=wrap;html=1;aspect=fixed;" vertex="1" parent="nun3F6Sf1-hT-UwbbtUc-325">
          <mxGeometry y="48" width="80" height="80" as="geometry" />
        </mxCell>
        <mxCell id="nun3F6Sf1-hT-UwbbtUc-327" value="H=2" style="text;html=1;align=center;verticalAlign=middle;whiteSpace=wrap;rounded=0;fontSize=16;" vertex="1" parent="nun3F6Sf1-hT-UwbbtUc-325">
          <mxGeometry x="10" width="60" height="30" as="geometry" />
        </mxCell>
        <mxCell id="nun3F6Sf1-hT-UwbbtUc-421" style="edgeStyle=none;curved=1;rounded=0;orthogonalLoop=1;jettySize=auto;html=1;exitX=1;exitY=0.5;exitDx=0;exitDy=0;entryX=0;entryY=0.5;entryDx=0;entryDy=0;fontSize=12;startSize=8;endSize=8;" edge="1" parent="1" source="nun3F6Sf1-hT-UwbbtUc-62" target="nun3F6Sf1-hT-UwbbtUc-227">
          <mxGeometry relative="1" as="geometry" />
        </mxCell>
        <mxCell id="nun3F6Sf1-hT-UwbbtUc-422" style="edgeStyle=none;curved=1;rounded=0;orthogonalLoop=1;jettySize=auto;html=1;exitX=1;exitY=0.5;exitDx=0;exitDy=0;entryX=0;entryY=0.5;entryDx=0;entryDy=0;fontSize=12;startSize=8;endSize=8;" edge="1" parent="1" source="nun3F6Sf1-hT-UwbbtUc-227" target="nun3F6Sf1-hT-UwbbtUc-37">
          <mxGeometry relative="1" as="geometry" />
        </mxCell>
        <mxCell id="nun3F6Sf1-hT-UwbbtUc-423" style="edgeStyle=none;curved=1;rounded=0;orthogonalLoop=1;jettySize=auto;html=1;exitX=1;exitY=0.5;exitDx=0;exitDy=0;entryX=0;entryY=0.5;entryDx=0;entryDy=0;fontSize=12;startSize=8;endSize=8;" edge="1" parent="1" source="nun3F6Sf1-hT-UwbbtUc-37" target="nun3F6Sf1-hT-UwbbtUc-150">
          <mxGeometry relative="1" as="geometry" />
        </mxCell>
        <mxCell id="nun3F6Sf1-hT-UwbbtUc-424" style="edgeStyle=none;curved=1;rounded=0;orthogonalLoop=1;jettySize=auto;html=1;exitX=1;exitY=0.5;exitDx=0;exitDy=0;entryX=0;entryY=0.5;entryDx=0;entryDy=0;fontSize=12;startSize=8;endSize=8;" edge="1" parent="1" source="nun3F6Sf1-hT-UwbbtUc-150" target="nun3F6Sf1-hT-UwbbtUc-183">
          <mxGeometry relative="1" as="geometry" />
        </mxCell>
        <mxCell id="nun3F6Sf1-hT-UwbbtUc-425" style="edgeStyle=none;curved=1;rounded=0;orthogonalLoop=1;jettySize=auto;html=1;exitX=1;exitY=0.5;exitDx=0;exitDy=0;entryX=0;entryY=0.5;entryDx=0;entryDy=0;fontSize=12;startSize=8;endSize=8;" edge="1" parent="1" source="nun3F6Sf1-hT-UwbbtUc-183" target="nun3F6Sf1-hT-UwbbtUc-139">
          <mxGeometry relative="1" as="geometry" />
        </mxCell>
        <mxCell id="nun3F6Sf1-hT-UwbbtUc-426" style="edgeStyle=none;curved=1;rounded=0;orthogonalLoop=1;jettySize=auto;html=1;exitX=1;exitY=0.5;exitDx=0;exitDy=0;entryX=0;entryY=0.5;entryDx=0;entryDy=0;fontSize=12;startSize=8;endSize=8;" edge="1" parent="1" source="nun3F6Sf1-hT-UwbbtUc-139" target="nun3F6Sf1-hT-UwbbtUc-25">
          <mxGeometry relative="1" as="geometry" />
        </mxCell>
        <mxCell id="nun3F6Sf1-hT-UwbbtUc-428" style="edgeStyle=none;curved=0;rounded=0;orthogonalLoop=1;jettySize=auto;html=1;exitX=1;exitY=0.5;exitDx=0;exitDy=0;entryX=0;entryY=0;entryDx=0;entryDy=0;fontSize=12;startSize=8;endSize=8;" edge="1" parent="1" source="nun3F6Sf1-hT-UwbbtUc-84" target="nun3F6Sf1-hT-UwbbtUc-25">
          <mxGeometry relative="1" as="geometry">
            <Array as="points">
              <mxPoint x="1350" y="558" />
              <mxPoint x="1360" y="770" />
            </Array>
          </mxGeometry>
        </mxCell>
        <mxCell id="nun3F6Sf1-hT-UwbbtUc-430" style="edgeStyle=none;curved=0;rounded=0;orthogonalLoop=1;jettySize=auto;html=1;exitX=1;exitY=0.5;exitDx=0;exitDy=0;entryX=0;entryY=1;entryDx=0;entryDy=0;fontSize=12;startSize=8;endSize=8;" edge="1" parent="1" source="nun3F6Sf1-hT-UwbbtUc-194" target="nun3F6Sf1-hT-UwbbtUc-25">
          <mxGeometry relative="1" as="geometry">
            <Array as="points">
              <mxPoint x="1662" y="1078" />
            </Array>
          </mxGeometry>
        </mxCell>
        <mxCell id="nun3F6Sf1-hT-UwbbtUc-432" style="edgeStyle=none;curved=0;rounded=0;orthogonalLoop=1;jettySize=auto;html=1;exitX=1;exitY=0.5;exitDx=0;exitDy=0;entryX=0.5;entryY=1;entryDx=0;entryDy=0;fontSize=12;startSize=8;endSize=8;" edge="1" parent="1" source="nun3F6Sf1-hT-UwbbtUc-304" target="nun3F6Sf1-hT-UwbbtUc-25">
          <mxGeometry relative="1" as="geometry">
            <Array as="points">
              <mxPoint x="1680" y="1338" />
            </Array>
          </mxGeometry>
        </mxCell>
        <mxCell id="nun3F6Sf1-hT-UwbbtUc-433" style="edgeStyle=none;curved=0;rounded=0;orthogonalLoop=1;jettySize=auto;html=1;exitX=1;exitY=0.5;exitDx=0;exitDy=0;entryX=0.5;entryY=0;entryDx=0;entryDy=0;fontSize=12;startSize=8;endSize=8;" edge="1" parent="1" source="nun3F6Sf1-hT-UwbbtUc-249" target="nun3F6Sf1-hT-UwbbtUc-25">
          <mxGeometry relative="1" as="geometry">
            <Array as="points">
              <mxPoint x="1460" y="280" />
              <mxPoint x="1460" y="750" />
              <mxPoint x="1690" y="750" />
            </Array>
          </mxGeometry>
        </mxCell>
        <mxCell id="nun3F6Sf1-hT-UwbbtUc-434" style="edgeStyle=none;curved=1;rounded=0;orthogonalLoop=1;jettySize=auto;html=1;exitX=1;exitY=0.5;exitDx=0;exitDy=0;entryX=0;entryY=0.5;entryDx=0;entryDy=0;fontSize=12;startSize=8;endSize=8;" edge="1" parent="1" source="nun3F6Sf1-hT-UwbbtUc-172" target="nun3F6Sf1-hT-UwbbtUc-315">
          <mxGeometry relative="1" as="geometry" />
        </mxCell>
        <mxCell id="nun3F6Sf1-hT-UwbbtUc-435" style="edgeStyle=none;curved=1;rounded=0;orthogonalLoop=1;jettySize=auto;html=1;exitX=1;exitY=0.5;exitDx=0;exitDy=0;entryX=0;entryY=0.5;entryDx=0;entryDy=0;fontSize=12;startSize=8;endSize=8;" edge="1" parent="1" source="nun3F6Sf1-hT-UwbbtUc-315" target="nun3F6Sf1-hT-UwbbtUc-216">
          <mxGeometry relative="1" as="geometry" />
        </mxCell>
        <mxCell id="nun3F6Sf1-hT-UwbbtUc-436" style="edgeStyle=none;curved=1;rounded=0;orthogonalLoop=1;jettySize=auto;html=1;exitX=1;exitY=0.5;exitDx=0;exitDy=0;entryX=0;entryY=0.5;entryDx=0;entryDy=0;fontSize=12;startSize=8;endSize=8;" edge="1" parent="1" source="nun3F6Sf1-hT-UwbbtUc-216" target="nun3F6Sf1-hT-UwbbtUc-249">
          <mxGeometry relative="1" as="geometry" />
        </mxCell>
        <mxCell id="nun3F6Sf1-hT-UwbbtUc-437" style="edgeStyle=none;curved=1;rounded=0;orthogonalLoop=1;jettySize=auto;html=1;exitX=1;exitY=0.5;exitDx=0;exitDy=0;entryX=0;entryY=0.5;entryDx=0;entryDy=0;fontSize=12;startSize=8;endSize=8;" edge="1" parent="1" source="nun3F6Sf1-hT-UwbbtUc-117" target="nun3F6Sf1-hT-UwbbtUc-282">
          <mxGeometry relative="1" as="geometry" />
        </mxCell>
        <mxCell id="nun3F6Sf1-hT-UwbbtUc-438" style="edgeStyle=none;curved=1;rounded=0;orthogonalLoop=1;jettySize=auto;html=1;exitX=1;exitY=0.5;exitDx=0;exitDy=0;entryX=0;entryY=0.5;entryDx=0;entryDy=0;fontSize=12;startSize=8;endSize=8;" edge="1" parent="1" source="nun3F6Sf1-hT-UwbbtUc-282" target="nun3F6Sf1-hT-UwbbtUc-95">
          <mxGeometry relative="1" as="geometry" />
        </mxCell>
        <mxCell id="nun3F6Sf1-hT-UwbbtUc-439" style="edgeStyle=none;curved=1;rounded=0;orthogonalLoop=1;jettySize=auto;html=1;exitX=1;exitY=0.5;exitDx=0;exitDy=0;entryX=0;entryY=0.5;entryDx=0;entryDy=0;fontSize=12;startSize=8;endSize=8;" edge="1" parent="1" source="nun3F6Sf1-hT-UwbbtUc-95" target="nun3F6Sf1-hT-UwbbtUc-326">
          <mxGeometry relative="1" as="geometry" />
        </mxCell>
        <mxCell id="nun3F6Sf1-hT-UwbbtUc-440" style="edgeStyle=none;curved=1;rounded=0;orthogonalLoop=1;jettySize=auto;html=1;exitX=1;exitY=0.5;exitDx=0;exitDy=0;entryX=0;entryY=0.5;entryDx=0;entryDy=0;fontSize=12;startSize=8;endSize=8;" edge="1" parent="1" source="nun3F6Sf1-hT-UwbbtUc-326" target="nun3F6Sf1-hT-UwbbtUc-73">
          <mxGeometry relative="1" as="geometry" />
        </mxCell>
        <mxCell id="nun3F6Sf1-hT-UwbbtUc-441" style="edgeStyle=none;curved=1;rounded=0;orthogonalLoop=1;jettySize=auto;html=1;exitX=1;exitY=0.5;exitDx=0;exitDy=0;entryX=0;entryY=0.5;entryDx=0;entryDy=0;fontSize=12;startSize=8;endSize=8;" edge="1" parent="1" source="nun3F6Sf1-hT-UwbbtUc-73" target="nun3F6Sf1-hT-UwbbtUc-84">
          <mxGeometry relative="1" as="geometry" />
        </mxCell>
        <mxCell id="nun3F6Sf1-hT-UwbbtUc-442" style="edgeStyle=none;curved=1;rounded=0;orthogonalLoop=1;jettySize=auto;html=1;exitX=1;exitY=0.5;exitDx=0;exitDy=0;entryX=0;entryY=0.5;entryDx=0;entryDy=0;fontSize=12;startSize=8;endSize=8;" edge="1" parent="1" source="nun3F6Sf1-hT-UwbbtUc-205" target="nun3F6Sf1-hT-UwbbtUc-260">
          <mxGeometry relative="1" as="geometry" />
        </mxCell>
        <mxCell id="nun3F6Sf1-hT-UwbbtUc-443" style="edgeStyle=none;curved=1;rounded=0;orthogonalLoop=1;jettySize=auto;html=1;exitX=1;exitY=0.5;exitDx=0;exitDy=0;entryX=0;entryY=0.5;entryDx=0;entryDy=0;fontSize=12;startSize=8;endSize=8;" edge="1" parent="1" source="nun3F6Sf1-hT-UwbbtUc-260" target="nun3F6Sf1-hT-UwbbtUc-51">
          <mxGeometry relative="1" as="geometry" />
        </mxCell>
        <mxCell id="nun3F6Sf1-hT-UwbbtUc-444" style="edgeStyle=none;curved=1;rounded=0;orthogonalLoop=1;jettySize=auto;html=1;exitX=1;exitY=0.5;exitDx=0;exitDy=0;entryX=0;entryY=0.5;entryDx=0;entryDy=0;fontSize=12;startSize=8;endSize=8;" edge="1" parent="1" source="nun3F6Sf1-hT-UwbbtUc-51" target="nun3F6Sf1-hT-UwbbtUc-161">
          <mxGeometry relative="1" as="geometry" />
        </mxCell>
        <mxCell id="nun3F6Sf1-hT-UwbbtUc-445" style="edgeStyle=none;curved=1;rounded=0;orthogonalLoop=1;jettySize=auto;html=1;exitX=1;exitY=0.5;exitDx=0;exitDy=0;entryX=0;entryY=0.5;entryDx=0;entryDy=0;fontSize=12;startSize=8;endSize=8;" edge="1" parent="1" source="nun3F6Sf1-hT-UwbbtUc-161" target="nun3F6Sf1-hT-UwbbtUc-194">
          <mxGeometry relative="1" as="geometry" />
        </mxCell>
        <mxCell id="nun3F6Sf1-hT-UwbbtUc-446" style="edgeStyle=none;curved=1;rounded=0;orthogonalLoop=1;jettySize=auto;html=1;exitX=1;exitY=0.5;exitDx=0;exitDy=0;entryX=0;entryY=0.5;entryDx=0;entryDy=0;fontSize=12;startSize=8;endSize=8;" edge="1" parent="1" source="nun3F6Sf1-hT-UwbbtUc-106" target="nun3F6Sf1-hT-UwbbtUc-271">
          <mxGeometry relative="1" as="geometry" />
        </mxCell>
        <mxCell id="nun3F6Sf1-hT-UwbbtUc-447" style="edgeStyle=none;curved=1;rounded=0;orthogonalLoop=1;jettySize=auto;html=1;exitX=1;exitY=0.5;exitDx=0;exitDy=0;entryX=0;entryY=0.5;entryDx=0;entryDy=0;fontSize=12;startSize=8;endSize=8;" edge="1" parent="1" source="nun3F6Sf1-hT-UwbbtUc-271" target="nun3F6Sf1-hT-UwbbtUc-128">
          <mxGeometry relative="1" as="geometry" />
        </mxCell>
        <mxCell id="nun3F6Sf1-hT-UwbbtUc-448" style="edgeStyle=none;curved=1;rounded=0;orthogonalLoop=1;jettySize=auto;html=1;exitX=1;exitY=0.5;exitDx=0;exitDy=0;entryX=0;entryY=0.5;entryDx=0;entryDy=0;fontSize=12;startSize=8;endSize=8;" edge="1" parent="1" source="nun3F6Sf1-hT-UwbbtUc-128" target="nun3F6Sf1-hT-UwbbtUc-238">
          <mxGeometry relative="1" as="geometry" />
        </mxCell>
        <mxCell id="nun3F6Sf1-hT-UwbbtUc-449" style="edgeStyle=none;curved=1;rounded=0;orthogonalLoop=1;jettySize=auto;html=1;exitX=1;exitY=0.5;exitDx=0;exitDy=0;entryX=0;entryY=0.5;entryDx=0;entryDy=0;fontSize=12;startSize=8;endSize=8;" edge="1" parent="1" source="nun3F6Sf1-hT-UwbbtUc-238" target="nun3F6Sf1-hT-UwbbtUc-293">
          <mxGeometry relative="1" as="geometry" />
        </mxCell>
        <mxCell id="nun3F6Sf1-hT-UwbbtUc-450" style="edgeStyle=none;curved=1;rounded=0;orthogonalLoop=1;jettySize=auto;html=1;exitX=1;exitY=0.5;exitDx=0;exitDy=0;entryX=0;entryY=0.5;entryDx=0;entryDy=0;fontSize=12;startSize=8;endSize=8;" edge="1" parent="1" source="nun3F6Sf1-hT-UwbbtUc-293" target="nun3F6Sf1-hT-UwbbtUc-304">
          <mxGeometry relative="1" as="geometry" />
        </mxCell>
        <mxCell id="nun3F6Sf1-hT-UwbbtUc-451" style="edgeStyle=none;curved=0;rounded=0;orthogonalLoop=1;jettySize=auto;html=1;exitX=0.5;exitY=1;exitDx=0;exitDy=0;entryX=0;entryY=0.5;entryDx=0;entryDy=0;fontSize=12;startSize=8;endSize=8;" edge="1" parent="1" source="nun3F6Sf1-hT-UwbbtUc-4" target="nun3F6Sf1-hT-UwbbtUc-106">
          <mxGeometry relative="1" as="geometry">
            <Array as="points">
              <mxPoint x="90" y="1338" />
            </Array>
          </mxGeometry>
        </mxCell>
        <mxCell id="nun3F6Sf1-hT-UwbbtUc-452" style="edgeStyle=none;curved=0;rounded=0;orthogonalLoop=1;jettySize=auto;html=1;exitX=1;exitY=1;exitDx=0;exitDy=0;entryX=0;entryY=0.5;entryDx=0;entryDy=0;fontSize=12;startSize=8;endSize=8;" edge="1" parent="1" source="nun3F6Sf1-hT-UwbbtUc-4" target="nun3F6Sf1-hT-UwbbtUc-205">
          <mxGeometry relative="1" as="geometry">
            <Array as="points">
              <mxPoint x="128" y="1080" />
            </Array>
          </mxGeometry>
        </mxCell>
        <mxCell id="nun3F6Sf1-hT-UwbbtUc-453" style="edgeStyle=none;curved=0;rounded=0;orthogonalLoop=1;jettySize=auto;html=1;exitX=1;exitY=0;exitDx=0;exitDy=0;entryX=0;entryY=0.5;entryDx=0;entryDy=0;fontSize=12;startSize=8;endSize=8;" edge="1" parent="1" source="nun3F6Sf1-hT-UwbbtUc-4" target="nun3F6Sf1-hT-UwbbtUc-117">
          <mxGeometry relative="1" as="geometry">
            <Array as="points">
              <mxPoint x="250" y="780" />
              <mxPoint x="260" y="558" />
            </Array>
          </mxGeometry>
        </mxCell>
        <mxCell id="nun3F6Sf1-hT-UwbbtUc-454" style="edgeStyle=none;curved=0;rounded=0;orthogonalLoop=1;jettySize=auto;html=1;exitX=0.5;exitY=0;exitDx=0;exitDy=0;entryX=0;entryY=0.5;entryDx=0;entryDy=0;fontSize=12;startSize=8;endSize=8;" edge="1" parent="1" source="nun3F6Sf1-hT-UwbbtUc-4" target="nun3F6Sf1-hT-UwbbtUc-172">
          <mxGeometry relative="1" as="geometry">
            <Array as="points">
              <mxPoint x="240" y="760" />
              <mxPoint x="250" y="290" />
            </Array>
          </mxGeometry>
        </mxCell>
        <mxCell id="WvGcMjC-rIRjjNskrhYT-34" value="" style="group" connectable="0" vertex="1" parent="1">
          <mxGeometry x="-840" y="240" width="200" height="1120" as="geometry" />
        </mxCell>
        <mxCell id="nun3F6Sf1-hT-UwbbtUc-328" value="" style="shape=table;startSize=0;container=1;collapsible=0;childLayout=tableLayout;" vertex="1" parent="WvGcMjC-rIRjjNskrhYT-34">
          <mxGeometry width="200" height="800" as="geometry" />
        </mxCell>
        <mxCell id="nun3F6Sf1-hT-UwbbtUc-329" value="" style="shape=tableRow;horizontal=0;startSize=0;swimlaneHead=0;swimlaneBody=0;strokeColor=inherit;top=0;left=0;bottom=0;right=0;collapsible=0;dropTarget=0;fillColor=none;points=[[0,0.5],[1,0.5]];portConstraint=eastwest;" vertex="1" parent="nun3F6Sf1-hT-UwbbtUc-328">
          <mxGeometry width="200" height="40" as="geometry" />
        </mxCell>
        <mxCell id="nun3F6Sf1-hT-UwbbtUc-330" value="tarea" style="shape=partialRectangle;html=1;whiteSpace=wrap;connectable=0;strokeColor=inherit;overflow=hidden;fillColor=none;top=0;left=0;bottom=0;right=0;pointerEvents=1;" vertex="1" parent="nun3F6Sf1-hT-UwbbtUc-329">
          <mxGeometry width="60" height="40" as="geometry">
            <mxRectangle width="60" height="40" as="alternateBounds" />
          </mxGeometry>
        </mxCell>
        <mxCell id="nun3F6Sf1-hT-UwbbtUc-331" value="duraciÃ³n" style="shape=partialRectangle;html=1;whiteSpace=wrap;connectable=0;strokeColor=inherit;overflow=hidden;fillColor=none;top=0;left=0;bottom=0;right=0;pointerEvents=1;" vertex="1" parent="nun3F6Sf1-hT-UwbbtUc-329">
          <mxGeometry x="60" width="60" height="40" as="geometry">
            <mxRectangle width="60" height="40" as="alternateBounds" />
          </mxGeometry>
        </mxCell>
        <mxCell id="nun3F6Sf1-hT-UwbbtUc-332" value="predecesores" style="shape=partialRectangle;html=1;whiteSpace=wrap;connectable=0;strokeColor=inherit;overflow=hidden;fillColor=none;top=0;left=0;bottom=0;right=0;pointerEvents=1;" vertex="1" parent="nun3F6Sf1-hT-UwbbtUc-329">
          <mxGeometry x="120" width="80" height="40" as="geometry">
            <mxRectangle width="80" height="40" as="alternateBounds" />
          </mxGeometry>
        </mxCell>
        <mxCell id="nun3F6Sf1-hT-UwbbtUc-333" value="" style="shape=tableRow;horizontal=0;startSize=0;swimlaneHead=0;swimlaneBody=0;strokeColor=inherit;top=0;left=0;bottom=0;right=0;collapsible=0;dropTarget=0;fillColor=none;points=[[0,0.5],[1,0.5]];portConstraint=eastwest;" vertex="1" parent="nun3F6Sf1-hT-UwbbtUc-328">
          <mxGeometry y="40" width="200" height="40" as="geometry" />
        </mxCell>
        <mxCell id="nun3F6Sf1-hT-UwbbtUc-334" value="1" style="shape=partialRectangle;html=1;whiteSpace=wrap;connectable=0;strokeColor=inherit;overflow=hidden;fillColor=none;top=0;left=0;bottom=0;right=0;pointerEvents=1;" vertex="1" parent="nun3F6Sf1-hT-UwbbtUc-333">
          <mxGeometry width="60" height="40" as="geometry">
            <mxRectangle width="60" height="40" as="alternateBounds" />
          </mxGeometry>
        </mxCell>
        <mxCell id="nun3F6Sf1-hT-UwbbtUc-335" value="0.5" style="shape=partialRectangle;html=1;whiteSpace=wrap;connectable=0;strokeColor=inherit;overflow=hidden;fillColor=none;top=0;left=0;bottom=0;right=0;pointerEvents=1;" vertex="1" parent="nun3F6Sf1-hT-UwbbtUc-333">
          <mxGeometry x="60" width="60" height="40" as="geometry">
            <mxRectangle width="60" height="40" as="alternateBounds" />
          </mxGeometry>
        </mxCell>
        <mxCell id="nun3F6Sf1-hT-UwbbtUc-336" value="" style="shape=partialRectangle;html=1;whiteSpace=wrap;connectable=0;strokeColor=inherit;overflow=hidden;fillColor=none;top=0;left=0;bottom=0;right=0;pointerEvents=1;" vertex="1" parent="nun3F6Sf1-hT-UwbbtUc-333">
          <mxGeometry x="120" width="80" height="40" as="geometry">
            <mxRectangle width="80" height="40" as="alternateBounds" />
          </mxGeometry>
        </mxCell>
        <mxCell id="nun3F6Sf1-hT-UwbbtUc-337" value="" style="shape=tableRow;horizontal=0;startSize=0;swimlaneHead=0;swimlaneBody=0;strokeColor=inherit;top=0;left=0;bottom=0;right=0;collapsible=0;dropTarget=0;fillColor=none;points=[[0,0.5],[1,0.5]];portConstraint=eastwest;" vertex="1" parent="nun3F6Sf1-hT-UwbbtUc-328">
          <mxGeometry y="80" width="200" height="40" as="geometry" />
        </mxCell>
        <mxCell id="nun3F6Sf1-hT-UwbbtUc-338" value="2" style="shape=partialRectangle;html=1;whiteSpace=wrap;connectable=0;strokeColor=inherit;overflow=hidden;fillColor=none;top=0;left=0;bottom=0;right=0;pointerEvents=1;" vertex="1" parent="nun3F6Sf1-hT-UwbbtUc-337">
          <mxGeometry width="60" height="40" as="geometry">
            <mxRectangle width="60" height="40" as="alternateBounds" />
          </mxGeometry>
        </mxCell>
        <mxCell id="nun3F6Sf1-hT-UwbbtUc-339" value="0.5" style="shape=partialRectangle;html=1;whiteSpace=wrap;connectable=0;strokeColor=inherit;overflow=hidden;fillColor=none;top=0;left=0;bottom=0;right=0;pointerEvents=1;" vertex="1" parent="nun3F6Sf1-hT-UwbbtUc-337">
          <mxGeometry x="60" width="60" height="40" as="geometry">
            <mxRectangle width="60" height="40" as="alternateBounds" />
          </mxGeometry>
        </mxCell>
        <mxCell id="nun3F6Sf1-hT-UwbbtUc-340" value="" style="shape=partialRectangle;html=1;whiteSpace=wrap;connectable=0;strokeColor=inherit;overflow=hidden;fillColor=none;top=0;left=0;bottom=0;right=0;pointerEvents=1;" vertex="1" parent="nun3F6Sf1-hT-UwbbtUc-337">
          <mxGeometry x="120" width="80" height="40" as="geometry">
            <mxRectangle width="80" height="40" as="alternateBounds" />
          </mxGeometry>
        </mxCell>
        <mxCell id="nun3F6Sf1-hT-UwbbtUc-341" value="" style="shape=tableRow;horizontal=0;startSize=0;swimlaneHead=0;swimlaneBody=0;strokeColor=inherit;top=0;left=0;bottom=0;right=0;collapsible=0;dropTarget=0;fillColor=none;points=[[0,0.5],[1,0.5]];portConstraint=eastwest;" vertex="1" parent="nun3F6Sf1-hT-UwbbtUc-328">
          <mxGeometry y="120" width="200" height="40" as="geometry" />
        </mxCell>
        <mxCell id="nun3F6Sf1-hT-UwbbtUc-342" value="3" style="shape=partialRectangle;html=1;whiteSpace=wrap;connectable=0;strokeColor=inherit;overflow=hidden;fillColor=none;top=0;left=0;bottom=0;right=0;pointerEvents=1;" vertex="1" parent="nun3F6Sf1-hT-UwbbtUc-341">
          <mxGeometry width="60" height="40" as="geometry">
            <mxRectangle width="60" height="40" as="alternateBounds" />
          </mxGeometry>
        </mxCell>
        <mxCell id="nun3F6Sf1-hT-UwbbtUc-343" value="0.5" style="shape=partialRectangle;html=1;whiteSpace=wrap;connectable=0;strokeColor=inherit;overflow=hidden;fillColor=none;top=0;left=0;bottom=0;right=0;pointerEvents=1;" vertex="1" parent="nun3F6Sf1-hT-UwbbtUc-341">
          <mxGeometry x="60" width="60" height="40" as="geometry">
            <mxRectangle width="60" height="40" as="alternateBounds" />
          </mxGeometry>
        </mxCell>
        <mxCell id="nun3F6Sf1-hT-UwbbtUc-344" value="" style="shape=partialRectangle;html=1;whiteSpace=wrap;connectable=0;strokeColor=inherit;overflow=hidden;fillColor=none;top=0;left=0;bottom=0;right=0;pointerEvents=1;" vertex="1" parent="nun3F6Sf1-hT-UwbbtUc-341">
          <mxGeometry x="120" width="80" height="40" as="geometry">
            <mxRectangle width="80" height="40" as="alternateBounds" />
          </mxGeometry>
        </mxCell>
        <mxCell id="nun3F6Sf1-hT-UwbbtUc-345" value="" style="shape=tableRow;horizontal=0;startSize=0;swimlaneHead=0;swimlaneBody=0;strokeColor=inherit;top=0;left=0;bottom=0;right=0;collapsible=0;dropTarget=0;fillColor=none;points=[[0,0.5],[1,0.5]];portConstraint=eastwest;" vertex="1" parent="nun3F6Sf1-hT-UwbbtUc-328">
          <mxGeometry y="160" width="200" height="40" as="geometry" />
        </mxCell>
        <mxCell id="nun3F6Sf1-hT-UwbbtUc-346" value="4" style="shape=partialRectangle;html=1;whiteSpace=wrap;connectable=0;strokeColor=inherit;overflow=hidden;fillColor=none;top=0;left=0;bottom=0;right=0;pointerEvents=1;" vertex="1" parent="nun3F6Sf1-hT-UwbbtUc-345">
          <mxGeometry width="60" height="40" as="geometry">
            <mxRectangle width="60" height="40" as="alternateBounds" />
          </mxGeometry>
        </mxCell>
        <mxCell id="nun3F6Sf1-hT-UwbbtUc-347" value="3" style="shape=partialRectangle;html=1;whiteSpace=wrap;connectable=0;strokeColor=inherit;overflow=hidden;fillColor=none;top=0;left=0;bottom=0;right=0;pointerEvents=1;" vertex="1" parent="nun3F6Sf1-hT-UwbbtUc-345">
          <mxGeometry x="60" width="60" height="40" as="geometry">
            <mxRectangle width="60" height="40" as="alternateBounds" />
          </mxGeometry>
        </mxCell>
        <mxCell id="nun3F6Sf1-hT-UwbbtUc-348" value="1" style="shape=partialRectangle;html=1;whiteSpace=wrap;connectable=0;strokeColor=inherit;overflow=hidden;fillColor=none;top=0;left=0;bottom=0;right=0;pointerEvents=1;" vertex="1" parent="nun3F6Sf1-hT-UwbbtUc-345">
          <mxGeometry x="120" width="80" height="40" as="geometry">
            <mxRectangle width="80" height="40" as="alternateBounds" />
          </mxGeometry>
        </mxCell>
        <mxCell id="nun3F6Sf1-hT-UwbbtUc-349" value="" style="shape=tableRow;horizontal=0;startSize=0;swimlaneHead=0;swimlaneBody=0;strokeColor=inherit;top=0;left=0;bottom=0;right=0;collapsible=0;dropTarget=0;fillColor=none;points=[[0,0.5],[1,0.5]];portConstraint=eastwest;" vertex="1" parent="nun3F6Sf1-hT-UwbbtUc-328">
          <mxGeometry y="200" width="200" height="40" as="geometry" />
        </mxCell>
        <mxCell id="nun3F6Sf1-hT-UwbbtUc-350" value="5" style="shape=partialRectangle;html=1;whiteSpace=wrap;connectable=0;strokeColor=inherit;overflow=hidden;fillColor=none;top=0;left=0;bottom=0;right=0;pointerEvents=1;" vertex="1" parent="nun3F6Sf1-hT-UwbbtUc-349">
          <mxGeometry width="60" height="40" as="geometry">
            <mxRectangle width="60" height="40" as="alternateBounds" />
          </mxGeometry>
        </mxCell>
        <mxCell id="nun3F6Sf1-hT-UwbbtUc-351" value="5" style="shape=partialRectangle;html=1;whiteSpace=wrap;connectable=0;strokeColor=inherit;overflow=hidden;fillColor=none;top=0;left=0;bottom=0;right=0;pointerEvents=1;" vertex="1" parent="nun3F6Sf1-hT-UwbbtUc-349">
          <mxGeometry x="60" width="60" height="40" as="geometry">
            <mxRectangle width="60" height="40" as="alternateBounds" />
          </mxGeometry>
        </mxCell>
        <mxCell id="nun3F6Sf1-hT-UwbbtUc-352" value="2" style="shape=partialRectangle;html=1;whiteSpace=wrap;connectable=0;strokeColor=inherit;overflow=hidden;fillColor=none;top=0;left=0;bottom=0;right=0;pointerEvents=1;" vertex="1" parent="nun3F6Sf1-hT-UwbbtUc-349">
          <mxGeometry x="120" width="80" height="40" as="geometry">
            <mxRectangle width="80" height="40" as="alternateBounds" />
          </mxGeometry>
        </mxCell>
        <mxCell id="nun3F6Sf1-hT-UwbbtUc-353" value="" style="shape=tableRow;horizontal=0;startSize=0;swimlaneHead=0;swimlaneBody=0;strokeColor=inherit;top=0;left=0;bottom=0;right=0;collapsible=0;dropTarget=0;fillColor=none;points=[[0,0.5],[1,0.5]];portConstraint=eastwest;" vertex="1" parent="nun3F6Sf1-hT-UwbbtUc-328">
          <mxGeometry y="240" width="200" height="40" as="geometry" />
        </mxCell>
        <mxCell id="nun3F6Sf1-hT-UwbbtUc-354" value="6" style="shape=partialRectangle;html=1;whiteSpace=wrap;connectable=0;strokeColor=inherit;overflow=hidden;fillColor=none;top=0;left=0;bottom=0;right=0;pointerEvents=1;" vertex="1" parent="nun3F6Sf1-hT-UwbbtUc-353">
          <mxGeometry width="60" height="40" as="geometry">
            <mxRectangle width="60" height="40" as="alternateBounds" />
          </mxGeometry>
        </mxCell>
        <mxCell id="nun3F6Sf1-hT-UwbbtUc-355" value="4" style="shape=partialRectangle;html=1;whiteSpace=wrap;connectable=0;strokeColor=inherit;overflow=hidden;fillColor=none;top=0;left=0;bottom=0;right=0;pointerEvents=1;" vertex="1" parent="nun3F6Sf1-hT-UwbbtUc-353">
          <mxGeometry x="60" width="60" height="40" as="geometry">
            <mxRectangle width="60" height="40" as="alternateBounds" />
          </mxGeometry>
        </mxCell>
        <mxCell id="nun3F6Sf1-hT-UwbbtUc-356" value="3" style="shape=partialRectangle;html=1;whiteSpace=wrap;connectable=0;strokeColor=inherit;overflow=hidden;fillColor=none;top=0;left=0;bottom=0;right=0;pointerEvents=1;" vertex="1" parent="nun3F6Sf1-hT-UwbbtUc-353">
          <mxGeometry x="120" width="80" height="40" as="geometry">
            <mxRectangle width="80" height="40" as="alternateBounds" />
          </mxGeometry>
        </mxCell>
        <mxCell id="nun3F6Sf1-hT-UwbbtUc-357" value="" style="shape=tableRow;horizontal=0;startSize=0;swimlaneHead=0;swimlaneBody=0;strokeColor=inherit;top=0;left=0;bottom=0;right=0;collapsible=0;dropTarget=0;fillColor=none;points=[[0,0.5],[1,0.5]];portConstraint=eastwest;" vertex="1" parent="nun3F6Sf1-hT-UwbbtUc-328">
          <mxGeometry y="280" width="200" height="40" as="geometry" />
        </mxCell>
        <mxCell id="nun3F6Sf1-hT-UwbbtUc-358" value="7" style="shape=partialRectangle;html=1;whiteSpace=wrap;connectable=0;strokeColor=inherit;overflow=hidden;fillColor=none;top=0;left=0;bottom=0;right=0;pointerEvents=1;" vertex="1" parent="nun3F6Sf1-hT-UwbbtUc-357">
          <mxGeometry width="60" height="40" as="geometry">
            <mxRectangle width="60" height="40" as="alternateBounds" />
          </mxGeometry>
        </mxCell>
        <mxCell id="nun3F6Sf1-hT-UwbbtUc-359" value="1" style="shape=partialRectangle;html=1;whiteSpace=wrap;connectable=0;strokeColor=inherit;overflow=hidden;fillColor=none;top=0;left=0;bottom=0;right=0;pointerEvents=1;" vertex="1" parent="nun3F6Sf1-hT-UwbbtUc-357">
          <mxGeometry x="60" width="60" height="40" as="geometry">
            <mxRectangle width="60" height="40" as="alternateBounds" />
          </mxGeometry>
        </mxCell>
        <mxCell id="nun3F6Sf1-hT-UwbbtUc-360" value="4" style="shape=partialRectangle;html=1;whiteSpace=wrap;connectable=0;strokeColor=inherit;overflow=hidden;fillColor=none;top=0;left=0;bottom=0;right=0;pointerEvents=1;" vertex="1" parent="nun3F6Sf1-hT-UwbbtUc-357">
          <mxGeometry x="120" width="80" height="40" as="geometry">
            <mxRectangle width="80" height="40" as="alternateBounds" />
          </mxGeometry>
        </mxCell>
        <mxCell id="nun3F6Sf1-hT-UwbbtUc-361" value="" style="shape=tableRow;horizontal=0;startSize=0;swimlaneHead=0;swimlaneBody=0;strokeColor=inherit;top=0;left=0;bottom=0;right=0;collapsible=0;dropTarget=0;fillColor=none;points=[[0,0.5],[1,0.5]];portConstraint=eastwest;" vertex="1" parent="nun3F6Sf1-hT-UwbbtUc-328">
          <mxGeometry y="320" width="200" height="40" as="geometry" />
        </mxCell>
        <mxCell id="nun3F6Sf1-hT-UwbbtUc-362" value="8" style="shape=partialRectangle;html=1;whiteSpace=wrap;connectable=0;strokeColor=inherit;overflow=hidden;fillColor=none;top=0;left=0;bottom=0;right=0;pointerEvents=1;" vertex="1" parent="nun3F6Sf1-hT-UwbbtUc-361">
          <mxGeometry width="60" height="40" as="geometry">
            <mxRectangle width="60" height="40" as="alternateBounds" />
          </mxGeometry>
        </mxCell>
        <mxCell id="nun3F6Sf1-hT-UwbbtUc-363" value="0.5" style="shape=partialRectangle;html=1;whiteSpace=wrap;connectable=0;strokeColor=inherit;overflow=hidden;fillColor=none;top=0;left=0;bottom=0;right=0;pointerEvents=1;" vertex="1" parent="nun3F6Sf1-hT-UwbbtUc-361">
          <mxGeometry x="60" width="60" height="40" as="geometry">
            <mxRectangle width="60" height="40" as="alternateBounds" />
          </mxGeometry>
        </mxCell>
        <mxCell id="nun3F6Sf1-hT-UwbbtUc-364" value="5" style="shape=partialRectangle;html=1;whiteSpace=wrap;connectable=0;strokeColor=inherit;overflow=hidden;fillColor=none;top=0;left=0;bottom=0;right=0;pointerEvents=1;" vertex="1" parent="nun3F6Sf1-hT-UwbbtUc-361">
          <mxGeometry x="120" width="80" height="40" as="geometry">
            <mxRectangle width="80" height="40" as="alternateBounds" />
          </mxGeometry>
        </mxCell>
        <mxCell id="nun3F6Sf1-hT-UwbbtUc-365" value="" style="shape=tableRow;horizontal=0;startSize=0;swimlaneHead=0;swimlaneBody=0;strokeColor=inherit;top=0;left=0;bottom=0;right=0;collapsible=0;dropTarget=0;fillColor=none;points=[[0,0.5],[1,0.5]];portConstraint=eastwest;" vertex="1" parent="nun3F6Sf1-hT-UwbbtUc-328">
          <mxGeometry y="360" width="200" height="40" as="geometry" />
        </mxCell>
        <mxCell id="nun3F6Sf1-hT-UwbbtUc-366" value="9" style="shape=partialRectangle;html=1;whiteSpace=wrap;connectable=0;strokeColor=inherit;overflow=hidden;fillColor=none;top=0;left=0;bottom=0;right=0;pointerEvents=1;" vertex="1" parent="nun3F6Sf1-hT-UwbbtUc-365">
          <mxGeometry width="60" height="40" as="geometry">
            <mxRectangle width="60" height="40" as="alternateBounds" />
          </mxGeometry>
        </mxCell>
        <mxCell id="nun3F6Sf1-hT-UwbbtUc-367" value="3" style="shape=partialRectangle;html=1;whiteSpace=wrap;connectable=0;strokeColor=inherit;overflow=hidden;fillColor=none;top=0;left=0;bottom=0;right=0;pointerEvents=1;" vertex="1" parent="nun3F6Sf1-hT-UwbbtUc-365">
          <mxGeometry x="60" width="60" height="40" as="geometry">
            <mxRectangle width="60" height="40" as="alternateBounds" />
          </mxGeometry>
        </mxCell>
        <mxCell id="nun3F6Sf1-hT-UwbbtUc-368" value="7" style="shape=partialRectangle;html=1;whiteSpace=wrap;connectable=0;strokeColor=inherit;overflow=hidden;fillColor=none;top=0;left=0;bottom=0;right=0;pointerEvents=1;" vertex="1" parent="nun3F6Sf1-hT-UwbbtUc-365">
          <mxGeometry x="120" width="80" height="40" as="geometry">
            <mxRectangle width="80" height="40" as="alternateBounds" />
          </mxGeometry>
        </mxCell>
        <mxCell id="nun3F6Sf1-hT-UwbbtUc-369" value="" style="shape=tableRow;horizontal=0;startSize=0;swimlaneHead=0;swimlaneBody=0;strokeColor=inherit;top=0;left=0;bottom=0;right=0;collapsible=0;dropTarget=0;fillColor=none;points=[[0,0.5],[1,0.5]];portConstraint=eastwest;" vertex="1" parent="nun3F6Sf1-hT-UwbbtUc-328">
          <mxGeometry y="400" width="200" height="40" as="geometry" />
        </mxCell>
        <mxCell id="nun3F6Sf1-hT-UwbbtUc-370" value="10" style="shape=partialRectangle;html=1;whiteSpace=wrap;connectable=0;strokeColor=inherit;overflow=hidden;fillColor=none;top=0;left=0;bottom=0;right=0;pointerEvents=1;" vertex="1" parent="nun3F6Sf1-hT-UwbbtUc-369">
          <mxGeometry width="60" height="40" as="geometry">
            <mxRectangle width="60" height="40" as="alternateBounds" />
          </mxGeometry>
        </mxCell>
        <mxCell id="nun3F6Sf1-hT-UwbbtUc-371" value="3" style="shape=partialRectangle;html=1;whiteSpace=wrap;connectable=0;strokeColor=inherit;overflow=hidden;fillColor=none;top=0;left=0;bottom=0;right=0;pointerEvents=1;" vertex="1" parent="nun3F6Sf1-hT-UwbbtUc-369">
          <mxGeometry x="60" width="60" height="40" as="geometry">
            <mxRectangle width="60" height="40" as="alternateBounds" />
          </mxGeometry>
        </mxCell>
        <mxCell id="nun3F6Sf1-hT-UwbbtUc-372" value="" style="shape=partialRectangle;html=1;whiteSpace=wrap;connectable=0;strokeColor=inherit;overflow=hidden;fillColor=none;top=0;left=0;bottom=0;right=0;pointerEvents=1;" vertex="1" parent="nun3F6Sf1-hT-UwbbtUc-369">
          <mxGeometry x="120" width="80" height="40" as="geometry">
            <mxRectangle width="80" height="40" as="alternateBounds" />
          </mxGeometry>
        </mxCell>
        <mxCell id="nun3F6Sf1-hT-UwbbtUc-373" value="" style="shape=tableRow;horizontal=0;startSize=0;swimlaneHead=0;swimlaneBody=0;strokeColor=inherit;top=0;left=0;bottom=0;right=0;collapsible=0;dropTarget=0;fillColor=none;points=[[0,0.5],[1,0.5]];portConstraint=eastwest;" vertex="1" parent="nun3F6Sf1-hT-UwbbtUc-328">
          <mxGeometry y="440" width="200" height="40" as="geometry" />
        </mxCell>
        <mxCell id="nun3F6Sf1-hT-UwbbtUc-374" value="11" style="shape=partialRectangle;html=1;whiteSpace=wrap;connectable=0;strokeColor=inherit;overflow=hidden;fillColor=none;top=0;left=0;bottom=0;right=0;pointerEvents=1;" vertex="1" parent="nun3F6Sf1-hT-UwbbtUc-373">
          <mxGeometry width="60" height="40" as="geometry">
            <mxRectangle width="60" height="40" as="alternateBounds" />
          </mxGeometry>
        </mxCell>
        <mxCell id="nun3F6Sf1-hT-UwbbtUc-375" value="1" style="shape=partialRectangle;html=1;whiteSpace=wrap;connectable=0;strokeColor=inherit;overflow=hidden;fillColor=none;top=0;left=0;bottom=0;right=0;pointerEvents=1;" vertex="1" parent="nun3F6Sf1-hT-UwbbtUc-373">
          <mxGeometry x="60" width="60" height="40" as="geometry">
            <mxRectangle width="60" height="40" as="alternateBounds" />
          </mxGeometry>
        </mxCell>
        <mxCell id="nun3F6Sf1-hT-UwbbtUc-376" value="10" style="shape=partialRectangle;html=1;whiteSpace=wrap;connectable=0;strokeColor=inherit;overflow=hidden;fillColor=none;top=0;left=0;bottom=0;right=0;pointerEvents=1;" vertex="1" parent="nun3F6Sf1-hT-UwbbtUc-373">
          <mxGeometry x="120" width="80" height="40" as="geometry">
            <mxRectangle width="80" height="40" as="alternateBounds" />
          </mxGeometry>
        </mxCell>
        <mxCell id="nun3F6Sf1-hT-UwbbtUc-377" value="" style="shape=tableRow;horizontal=0;startSize=0;swimlaneHead=0;swimlaneBody=0;strokeColor=inherit;top=0;left=0;bottom=0;right=0;collapsible=0;dropTarget=0;fillColor=none;points=[[0,0.5],[1,0.5]];portConstraint=eastwest;" vertex="1" parent="nun3F6Sf1-hT-UwbbtUc-328">
          <mxGeometry y="480" width="200" height="40" as="geometry" />
        </mxCell>
        <mxCell id="nun3F6Sf1-hT-UwbbtUc-378" value="12" style="shape=partialRectangle;html=1;whiteSpace=wrap;connectable=0;strokeColor=inherit;overflow=hidden;fillColor=none;top=0;left=0;bottom=0;right=0;pointerEvents=1;" vertex="1" parent="nun3F6Sf1-hT-UwbbtUc-377">
          <mxGeometry width="60" height="40" as="geometry">
            <mxRectangle width="60" height="40" as="alternateBounds" />
          </mxGeometry>
        </mxCell>
        <mxCell id="nun3F6Sf1-hT-UwbbtUc-379" value="1" style="shape=partialRectangle;html=1;whiteSpace=wrap;connectable=0;strokeColor=inherit;overflow=hidden;fillColor=none;top=0;left=0;bottom=0;right=0;pointerEvents=1;" vertex="1" parent="nun3F6Sf1-hT-UwbbtUc-377">
          <mxGeometry x="60" width="60" height="40" as="geometry">
            <mxRectangle width="60" height="40" as="alternateBounds" />
          </mxGeometry>
        </mxCell>
        <mxCell id="nun3F6Sf1-hT-UwbbtUc-380" value="8" style="shape=partialRectangle;html=1;whiteSpace=wrap;connectable=0;strokeColor=inherit;overflow=hidden;fillColor=none;top=0;left=0;bottom=0;right=0;pointerEvents=1;" vertex="1" parent="nun3F6Sf1-hT-UwbbtUc-377">
          <mxGeometry x="120" width="80" height="40" as="geometry">
            <mxRectangle width="80" height="40" as="alternateBounds" />
          </mxGeometry>
        </mxCell>
        <mxCell id="nun3F6Sf1-hT-UwbbtUc-381" value="" style="shape=tableRow;horizontal=0;startSize=0;swimlaneHead=0;swimlaneBody=0;strokeColor=inherit;top=0;left=0;bottom=0;right=0;collapsible=0;dropTarget=0;fillColor=none;points=[[0,0.5],[1,0.5]];portConstraint=eastwest;" vertex="1" parent="nun3F6Sf1-hT-UwbbtUc-328">
          <mxGeometry y="520" width="200" height="40" as="geometry" />
        </mxCell>
        <mxCell id="nun3F6Sf1-hT-UwbbtUc-382" value="13" style="shape=partialRectangle;html=1;whiteSpace=wrap;connectable=0;strokeColor=inherit;overflow=hidden;fillColor=none;top=0;left=0;bottom=0;right=0;pointerEvents=1;" vertex="1" parent="nun3F6Sf1-hT-UwbbtUc-381">
          <mxGeometry width="60" height="40" as="geometry">
            <mxRectangle width="60" height="40" as="alternateBounds" />
          </mxGeometry>
        </mxCell>
        <mxCell id="nun3F6Sf1-hT-UwbbtUc-383" value="3" style="shape=partialRectangle;html=1;whiteSpace=wrap;connectable=0;strokeColor=inherit;overflow=hidden;fillColor=none;top=0;left=0;bottom=0;right=0;pointerEvents=1;" vertex="1" parent="nun3F6Sf1-hT-UwbbtUc-381">
          <mxGeometry x="60" width="60" height="40" as="geometry">
            <mxRectangle width="60" height="40" as="alternateBounds" />
          </mxGeometry>
        </mxCell>
        <mxCell id="nun3F6Sf1-hT-UwbbtUc-384" value="11" style="shape=partialRectangle;html=1;whiteSpace=wrap;connectable=0;strokeColor=inherit;overflow=hidden;fillColor=none;top=0;left=0;bottom=0;right=0;pointerEvents=1;" vertex="1" parent="nun3F6Sf1-hT-UwbbtUc-381">
          <mxGeometry x="120" width="80" height="40" as="geometry">
            <mxRectangle width="80" height="40" as="alternateBounds" />
          </mxGeometry>
        </mxCell>
        <mxCell id="nun3F6Sf1-hT-UwbbtUc-385" value="" style="shape=tableRow;horizontal=0;startSize=0;swimlaneHead=0;swimlaneBody=0;strokeColor=inherit;top=0;left=0;bottom=0;right=0;collapsible=0;dropTarget=0;fillColor=none;points=[[0,0.5],[1,0.5]];portConstraint=eastwest;" vertex="1" parent="nun3F6Sf1-hT-UwbbtUc-328">
          <mxGeometry y="560" width="200" height="40" as="geometry" />
        </mxCell>
        <mxCell id="nun3F6Sf1-hT-UwbbtUc-386" value="14" style="shape=partialRectangle;html=1;whiteSpace=wrap;connectable=0;strokeColor=inherit;overflow=hidden;fillColor=none;top=0;left=0;bottom=0;right=0;pointerEvents=1;" vertex="1" parent="nun3F6Sf1-hT-UwbbtUc-385">
          <mxGeometry width="60" height="40" as="geometry">
            <mxRectangle width="60" height="40" as="alternateBounds" />
          </mxGeometry>
        </mxCell>
        <mxCell id="nun3F6Sf1-hT-UwbbtUc-387" value="3" style="shape=partialRectangle;html=1;whiteSpace=wrap;connectable=0;strokeColor=inherit;overflow=hidden;fillColor=none;top=0;left=0;bottom=0;right=0;pointerEvents=1;" vertex="1" parent="nun3F6Sf1-hT-UwbbtUc-385">
          <mxGeometry x="60" width="60" height="40" as="geometry">
            <mxRectangle width="60" height="40" as="alternateBounds" />
          </mxGeometry>
        </mxCell>
        <mxCell id="nun3F6Sf1-hT-UwbbtUc-388" value="" style="shape=partialRectangle;html=1;whiteSpace=wrap;connectable=0;strokeColor=inherit;overflow=hidden;fillColor=none;top=0;left=0;bottom=0;right=0;pointerEvents=1;" vertex="1" parent="nun3F6Sf1-hT-UwbbtUc-385">
          <mxGeometry x="120" width="80" height="40" as="geometry">
            <mxRectangle width="80" height="40" as="alternateBounds" />
          </mxGeometry>
        </mxCell>
        <mxCell id="nun3F6Sf1-hT-UwbbtUc-389" value="" style="shape=tableRow;horizontal=0;startSize=0;swimlaneHead=0;swimlaneBody=0;strokeColor=inherit;top=0;left=0;bottom=0;right=0;collapsible=0;dropTarget=0;fillColor=none;points=[[0,0.5],[1,0.5]];portConstraint=eastwest;" vertex="1" parent="nun3F6Sf1-hT-UwbbtUc-328">
          <mxGeometry y="600" width="200" height="40" as="geometry" />
        </mxCell>
        <mxCell id="nun3F6Sf1-hT-UwbbtUc-390" value="15" style="shape=partialRectangle;html=1;whiteSpace=wrap;connectable=0;strokeColor=inherit;overflow=hidden;fillColor=none;top=0;left=0;bottom=0;right=0;pointerEvents=1;" vertex="1" parent="nun3F6Sf1-hT-UwbbtUc-389">
          <mxGeometry width="60" height="40" as="geometry">
            <mxRectangle width="60" height="40" as="alternateBounds" />
          </mxGeometry>
        </mxCell>
        <mxCell id="nun3F6Sf1-hT-UwbbtUc-391" value="1" style="shape=partialRectangle;html=1;whiteSpace=wrap;connectable=0;strokeColor=inherit;overflow=hidden;fillColor=none;top=0;left=0;bottom=0;right=0;pointerEvents=1;" vertex="1" parent="nun3F6Sf1-hT-UwbbtUc-389">
          <mxGeometry x="60" width="60" height="40" as="geometry">
            <mxRectangle width="60" height="40" as="alternateBounds" />
          </mxGeometry>
        </mxCell>
        <mxCell id="nun3F6Sf1-hT-UwbbtUc-392" value="13" style="shape=partialRectangle;html=1;whiteSpace=wrap;connectable=0;strokeColor=inherit;overflow=hidden;fillColor=none;top=0;left=0;bottom=0;right=0;pointerEvents=1;" vertex="1" parent="nun3F6Sf1-hT-UwbbtUc-389">
          <mxGeometry x="120" width="80" height="40" as="geometry">
            <mxRectangle width="80" height="40" as="alternateBounds" />
          </mxGeometry>
        </mxCell>
        <mxCell id="nun3F6Sf1-hT-UwbbtUc-393" value="" style="shape=tableRow;horizontal=0;startSize=0;swimlaneHead=0;swimlaneBody=0;strokeColor=inherit;top=0;left=0;bottom=0;right=0;collapsible=0;dropTarget=0;fillColor=none;points=[[0,0.5],[1,0.5]];portConstraint=eastwest;" vertex="1" parent="nun3F6Sf1-hT-UwbbtUc-328">
          <mxGeometry y="640" width="200" height="40" as="geometry" />
        </mxCell>
        <mxCell id="nun3F6Sf1-hT-UwbbtUc-394" value="16" style="shape=partialRectangle;html=1;whiteSpace=wrap;connectable=0;strokeColor=inherit;overflow=hidden;fillColor=none;top=0;left=0;bottom=0;right=0;pointerEvents=1;" vertex="1" parent="nun3F6Sf1-hT-UwbbtUc-393">
          <mxGeometry width="60" height="40" as="geometry">
            <mxRectangle width="60" height="40" as="alternateBounds" />
          </mxGeometry>
        </mxCell>
        <mxCell id="nun3F6Sf1-hT-UwbbtUc-395" value="4" style="shape=partialRectangle;html=1;whiteSpace=wrap;connectable=0;strokeColor=inherit;overflow=hidden;fillColor=none;top=0;left=0;bottom=0;right=0;pointerEvents=1;" vertex="1" parent="nun3F6Sf1-hT-UwbbtUc-393">
          <mxGeometry x="60" width="60" height="40" as="geometry">
            <mxRectangle width="60" height="40" as="alternateBounds" />
          </mxGeometry>
        </mxCell>
        <mxCell id="nun3F6Sf1-hT-UwbbtUc-396" value="6" style="shape=partialRectangle;html=1;whiteSpace=wrap;connectable=0;strokeColor=inherit;overflow=hidden;fillColor=none;top=0;left=0;bottom=0;right=0;pointerEvents=1;" vertex="1" parent="nun3F6Sf1-hT-UwbbtUc-393">
          <mxGeometry x="120" width="80" height="40" as="geometry">
            <mxRectangle width="80" height="40" as="alternateBounds" />
          </mxGeometry>
        </mxCell>
        <mxCell id="nun3F6Sf1-hT-UwbbtUc-397" value="" style="shape=tableRow;horizontal=0;startSize=0;swimlaneHead=0;swimlaneBody=0;strokeColor=inherit;top=0;left=0;bottom=0;right=0;collapsible=0;dropTarget=0;fillColor=none;points=[[0,0.5],[1,0.5]];portConstraint=eastwest;" vertex="1" parent="nun3F6Sf1-hT-UwbbtUc-328">
          <mxGeometry y="680" width="200" height="40" as="geometry" />
        </mxCell>
        <mxCell id="nun3F6Sf1-hT-UwbbtUc-398" value="17" style="shape=partialRectangle;html=1;whiteSpace=wrap;connectable=0;strokeColor=inherit;overflow=hidden;fillColor=none;top=0;left=0;bottom=0;right=0;pointerEvents=1;" vertex="1" parent="nun3F6Sf1-hT-UwbbtUc-397">
          <mxGeometry width="60" height="40" as="geometry">
            <mxRectangle width="60" height="40" as="alternateBounds" />
          </mxGeometry>
        </mxCell>
        <mxCell id="nun3F6Sf1-hT-UwbbtUc-399" value="1" style="shape=partialRectangle;html=1;whiteSpace=wrap;connectable=0;strokeColor=inherit;overflow=hidden;fillColor=none;top=0;left=0;bottom=0;right=0;pointerEvents=1;" vertex="1" parent="nun3F6Sf1-hT-UwbbtUc-397">
          <mxGeometry x="60" width="60" height="40" as="geometry">
            <mxRectangle width="60" height="40" as="alternateBounds" />
          </mxGeometry>
        </mxCell>
        <mxCell id="nun3F6Sf1-hT-UwbbtUc-400" value="14" style="shape=partialRectangle;html=1;whiteSpace=wrap;connectable=0;strokeColor=inherit;overflow=hidden;fillColor=none;top=0;left=0;bottom=0;right=0;pointerEvents=1;" vertex="1" parent="nun3F6Sf1-hT-UwbbtUc-397">
          <mxGeometry x="120" width="80" height="40" as="geometry">
            <mxRectangle width="80" height="40" as="alternateBounds" />
          </mxGeometry>
        </mxCell>
        <mxCell id="nun3F6Sf1-hT-UwbbtUc-401" value="" style="shape=tableRow;horizontal=0;startSize=0;swimlaneHead=0;swimlaneBody=0;strokeColor=inherit;top=0;left=0;bottom=0;right=0;collapsible=0;dropTarget=0;fillColor=none;points=[[0,0.5],[1,0.5]];portConstraint=eastwest;" vertex="1" parent="nun3F6Sf1-hT-UwbbtUc-328">
          <mxGeometry y="720" width="200" height="40" as="geometry" />
        </mxCell>
        <mxCell id="nun3F6Sf1-hT-UwbbtUc-402" value="18" style="shape=partialRectangle;html=1;whiteSpace=wrap;connectable=0;strokeColor=inherit;overflow=hidden;fillColor=none;top=0;left=0;bottom=0;right=0;pointerEvents=1;" vertex="1" parent="nun3F6Sf1-hT-UwbbtUc-401">
          <mxGeometry width="60" height="40" as="geometry">
            <mxRectangle width="60" height="40" as="alternateBounds" />
          </mxGeometry>
        </mxCell>
        <mxCell id="nun3F6Sf1-hT-UwbbtUc-403" value="1.5" style="shape=partialRectangle;html=1;whiteSpace=wrap;connectable=0;strokeColor=inherit;overflow=hidden;fillColor=none;top=0;left=0;bottom=0;right=0;pointerEvents=1;" vertex="1" parent="nun3F6Sf1-hT-UwbbtUc-401">
          <mxGeometry x="60" width="60" height="40" as="geometry">
            <mxRectangle width="60" height="40" as="alternateBounds" />
          </mxGeometry>
        </mxCell>
        <mxCell id="nun3F6Sf1-hT-UwbbtUc-404" value="12" style="shape=partialRectangle;html=1;whiteSpace=wrap;connectable=0;strokeColor=inherit;overflow=hidden;fillColor=none;top=0;left=0;bottom=0;right=0;pointerEvents=1;" vertex="1" parent="nun3F6Sf1-hT-UwbbtUc-401">
          <mxGeometry x="120" width="80" height="40" as="geometry">
            <mxRectangle width="80" height="40" as="alternateBounds" />
          </mxGeometry>
        </mxCell>
        <mxCell id="nun3F6Sf1-hT-UwbbtUc-405" value="" style="shape=tableRow;horizontal=0;startSize=0;swimlaneHead=0;swimlaneBody=0;strokeColor=inherit;top=0;left=0;bottom=0;right=0;collapsible=0;dropTarget=0;fillColor=none;points=[[0,0.5],[1,0.5]];portConstraint=eastwest;" vertex="1" parent="nun3F6Sf1-hT-UwbbtUc-328">
          <mxGeometry y="760" width="200" height="40" as="geometry" />
        </mxCell>
        <mxCell id="nun3F6Sf1-hT-UwbbtUc-406" value="19" style="shape=partialRectangle;html=1;whiteSpace=wrap;connectable=0;strokeColor=inherit;overflow=hidden;fillColor=none;top=0;left=0;bottom=0;right=0;pointerEvents=1;" vertex="1" parent="nun3F6Sf1-hT-UwbbtUc-405">
          <mxGeometry width="60" height="40" as="geometry">
            <mxRectangle width="60" height="40" as="alternateBounds" />
          </mxGeometry>
        </mxCell>
        <mxCell id="nun3F6Sf1-hT-UwbbtUc-407" value="1" style="shape=partialRectangle;html=1;whiteSpace=wrap;connectable=0;strokeColor=inherit;overflow=hidden;fillColor=none;top=0;left=0;bottom=0;right=0;pointerEvents=1;" vertex="1" parent="nun3F6Sf1-hT-UwbbtUc-405">
          <mxGeometry x="60" width="60" height="40" as="geometry">
            <mxRectangle width="60" height="40" as="alternateBounds" />
          </mxGeometry>
        </mxCell>
        <mxCell id="nun3F6Sf1-hT-UwbbtUc-408" value="17" style="shape=partialRectangle;html=1;whiteSpace=wrap;connectable=0;strokeColor=inherit;overflow=hidden;fillColor=none;top=0;left=0;bottom=0;right=0;pointerEvents=1;" vertex="1" parent="nun3F6Sf1-hT-UwbbtUc-405">
          <mxGeometry x="120" width="80" height="40" as="geometry">
            <mxRectangle width="80" height="40" as="alternateBounds" />
          </mxGeometry>
        </mxCell>
        <mxCell id="WvGcMjC-rIRjjNskrhYT-1" value="" style="shape=table;startSize=0;container=1;collapsible=0;childLayout=tableLayout;" vertex="1" parent="WvGcMjC-rIRjjNskrhYT-34">
          <mxGeometry y="800" width="200" height="320" as="geometry" />
        </mxCell>
        <mxCell id="WvGcMjC-rIRjjNskrhYT-2" value="" style="shape=tableRow;horizontal=0;startSize=0;swimlaneHead=0;swimlaneBody=0;strokeColor=inherit;top=0;left=0;bottom=0;right=0;collapsible=0;dropTarget=0;fillColor=none;points=[[0,0.5],[1,0.5]];portConstraint=eastwest;" vertex="1" parent="WvGcMjC-rIRjjNskrhYT-1">
          <mxGeometry width="200" height="40" as="geometry" />
        </mxCell>
        <mxCell id="WvGcMjC-rIRjjNskrhYT-3" value="20" style="shape=partialRectangle;html=1;whiteSpace=wrap;connectable=0;strokeColor=inherit;overflow=hidden;fillColor=none;top=0;left=0;bottom=0;right=0;pointerEvents=1;" vertex="1" parent="WvGcMjC-rIRjjNskrhYT-2">
          <mxGeometry width="60" height="40" as="geometry">
            <mxRectangle width="60" height="40" as="alternateBounds" />
          </mxGeometry>
        </mxCell>
        <mxCell id="WvGcMjC-rIRjjNskrhYT-4" value="0.5" style="shape=partialRectangle;html=1;whiteSpace=wrap;connectable=0;strokeColor=inherit;overflow=hidden;fillColor=none;top=0;left=0;bottom=0;right=0;pointerEvents=1;" vertex="1" parent="WvGcMjC-rIRjjNskrhYT-2">
          <mxGeometry x="60" width="60" height="40" as="geometry">
            <mxRectangle width="60" height="40" as="alternateBounds" />
          </mxGeometry>
        </mxCell>
        <mxCell id="WvGcMjC-rIRjjNskrhYT-5" value="9" style="shape=partialRectangle;html=1;whiteSpace=wrap;connectable=0;strokeColor=inherit;overflow=hidden;fillColor=none;top=0;left=0;bottom=0;right=0;pointerEvents=1;" vertex="1" parent="WvGcMjC-rIRjjNskrhYT-2">
          <mxGeometry x="120" width="80" height="40" as="geometry">
            <mxRectangle width="80" height="40" as="alternateBounds" />
          </mxGeometry>
        </mxCell>
        <mxCell id="WvGcMjC-rIRjjNskrhYT-6" value="" style="shape=tableRow;horizontal=0;startSize=0;swimlaneHead=0;swimlaneBody=0;strokeColor=inherit;top=0;left=0;bottom=0;right=0;collapsible=0;dropTarget=0;fillColor=none;points=[[0,0.5],[1,0.5]];portConstraint=eastwest;" vertex="1" parent="WvGcMjC-rIRjjNskrhYT-1">
          <mxGeometry y="40" width="200" height="40" as="geometry" />
        </mxCell>
        <mxCell id="WvGcMjC-rIRjjNskrhYT-7" value="21" style="shape=partialRectangle;html=1;whiteSpace=wrap;connectable=0;strokeColor=inherit;overflow=hidden;fillColor=none;top=0;left=0;bottom=0;right=0;pointerEvents=1;" vertex="1" parent="WvGcMjC-rIRjjNskrhYT-6">
          <mxGeometry width="60" height="40" as="geometry">
            <mxRectangle width="60" height="40" as="alternateBounds" />
          </mxGeometry>
        </mxCell>
        <mxCell id="WvGcMjC-rIRjjNskrhYT-8" value="3" style="shape=partialRectangle;html=1;whiteSpace=wrap;connectable=0;strokeColor=inherit;overflow=hidden;fillColor=none;top=0;left=0;bottom=0;right=0;pointerEvents=1;" vertex="1" parent="WvGcMjC-rIRjjNskrhYT-6">
          <mxGeometry x="60" width="60" height="40" as="geometry">
            <mxRectangle width="60" height="40" as="alternateBounds" />
          </mxGeometry>
        </mxCell>
        <mxCell id="WvGcMjC-rIRjjNskrhYT-9" value="19" style="shape=partialRectangle;html=1;whiteSpace=wrap;connectable=0;strokeColor=inherit;overflow=hidden;fillColor=none;top=0;left=0;bottom=0;right=0;pointerEvents=1;" vertex="1" parent="WvGcMjC-rIRjjNskrhYT-6">
          <mxGeometry x="120" width="80" height="40" as="geometry">
            <mxRectangle width="80" height="40" as="alternateBounds" />
          </mxGeometry>
        </mxCell>
        <mxCell id="WvGcMjC-rIRjjNskrhYT-10" value="" style="shape=tableRow;horizontal=0;startSize=0;swimlaneHead=0;swimlaneBody=0;strokeColor=inherit;top=0;left=0;bottom=0;right=0;collapsible=0;dropTarget=0;fillColor=none;points=[[0,0.5],[1,0.5]];portConstraint=eastwest;" vertex="1" parent="WvGcMjC-rIRjjNskrhYT-1">
          <mxGeometry y="80" width="200" height="40" as="geometry" />
        </mxCell>
        <mxCell id="WvGcMjC-rIRjjNskrhYT-11" value="22" style="shape=partialRectangle;html=1;whiteSpace=wrap;connectable=0;strokeColor=inherit;overflow=hidden;fillColor=none;top=0;left=0;bottom=0;right=0;pointerEvents=1;" vertex="1" parent="WvGcMjC-rIRjjNskrhYT-10">
          <mxGeometry width="60" height="40" as="geometry">
            <mxRectangle width="60" height="40" as="alternateBounds" />
          </mxGeometry>
        </mxCell>
        <mxCell id="WvGcMjC-rIRjjNskrhYT-12" value="2" style="shape=partialRectangle;html=1;whiteSpace=wrap;connectable=0;strokeColor=inherit;overflow=hidden;fillColor=none;top=0;left=0;bottom=0;right=0;pointerEvents=1;" vertex="1" parent="WvGcMjC-rIRjjNskrhYT-10">
          <mxGeometry x="60" width="60" height="40" as="geometry">
            <mxRectangle width="60" height="40" as="alternateBounds" />
          </mxGeometry>
        </mxCell>
        <mxCell id="WvGcMjC-rIRjjNskrhYT-13" value="21" style="shape=partialRectangle;html=1;whiteSpace=wrap;connectable=0;strokeColor=inherit;overflow=hidden;fillColor=none;top=0;left=0;bottom=0;right=0;pointerEvents=1;" vertex="1" parent="WvGcMjC-rIRjjNskrhYT-10">
          <mxGeometry x="120" width="80" height="40" as="geometry">
            <mxRectangle width="80" height="40" as="alternateBounds" />
          </mxGeometry>
        </mxCell>
        <mxCell id="WvGcMjC-rIRjjNskrhYT-14" value="" style="shape=tableRow;horizontal=0;startSize=0;swimlaneHead=0;swimlaneBody=0;strokeColor=inherit;top=0;left=0;bottom=0;right=0;collapsible=0;dropTarget=0;fillColor=none;points=[[0,0.5],[1,0.5]];portConstraint=eastwest;" vertex="1" parent="WvGcMjC-rIRjjNskrhYT-1">
          <mxGeometry y="120" width="200" height="40" as="geometry" />
        </mxCell>
        <mxCell id="WvGcMjC-rIRjjNskrhYT-15" value="23" style="shape=partialRectangle;html=1;whiteSpace=wrap;connectable=0;strokeColor=inherit;overflow=hidden;fillColor=none;top=0;left=0;bottom=0;right=0;pointerEvents=1;" vertex="1" parent="WvGcMjC-rIRjjNskrhYT-14">
          <mxGeometry width="60" height="40" as="geometry">
            <mxRectangle width="60" height="40" as="alternateBounds" />
          </mxGeometry>
        </mxCell>
        <mxCell id="WvGcMjC-rIRjjNskrhYT-16" value="0.5" style="shape=partialRectangle;html=1;whiteSpace=wrap;connectable=0;strokeColor=inherit;overflow=hidden;fillColor=none;top=0;left=0;bottom=0;right=0;pointerEvents=1;" vertex="1" parent="WvGcMjC-rIRjjNskrhYT-14">
          <mxGeometry x="60" width="60" height="40" as="geometry">
            <mxRectangle width="60" height="40" as="alternateBounds" />
          </mxGeometry>
        </mxCell>
        <mxCell id="WvGcMjC-rIRjjNskrhYT-17" value="18" style="shape=partialRectangle;html=1;whiteSpace=wrap;connectable=0;strokeColor=inherit;overflow=hidden;fillColor=none;top=0;left=0;bottom=0;right=0;pointerEvents=1;" vertex="1" parent="WvGcMjC-rIRjjNskrhYT-14">
          <mxGeometry x="120" width="80" height="40" as="geometry">
            <mxRectangle width="80" height="40" as="alternateBounds" />
          </mxGeometry>
        </mxCell>
        <mxCell id="WvGcMjC-rIRjjNskrhYT-18" value="" style="shape=tableRow;horizontal=0;startSize=0;swimlaneHead=0;swimlaneBody=0;strokeColor=inherit;top=0;left=0;bottom=0;right=0;collapsible=0;dropTarget=0;fillColor=none;points=[[0,0.5],[1,0.5]];portConstraint=eastwest;" vertex="1" parent="WvGcMjC-rIRjjNskrhYT-1">
          <mxGeometry y="160" width="200" height="40" as="geometry" />
        </mxCell>
        <mxCell id="WvGcMjC-rIRjjNskrhYT-19" value="24" style="shape=partialRectangle;html=1;whiteSpace=wrap;connectable=0;strokeColor=inherit;overflow=hidden;fillColor=none;top=0;left=0;bottom=0;right=0;pointerEvents=1;" vertex="1" parent="WvGcMjC-rIRjjNskrhYT-18">
          <mxGeometry width="60" height="40" as="geometry">
            <mxRectangle width="60" height="40" as="alternateBounds" />
          </mxGeometry>
        </mxCell>
        <mxCell id="WvGcMjC-rIRjjNskrhYT-20" value="1" style="shape=partialRectangle;html=1;whiteSpace=wrap;connectable=0;strokeColor=inherit;overflow=hidden;fillColor=none;top=0;left=0;bottom=0;right=0;pointerEvents=1;" vertex="1" parent="WvGcMjC-rIRjjNskrhYT-18">
          <mxGeometry x="60" width="60" height="40" as="geometry">
            <mxRectangle width="60" height="40" as="alternateBounds" />
          </mxGeometry>
        </mxCell>
        <mxCell id="WvGcMjC-rIRjjNskrhYT-21" value="20" style="shape=partialRectangle;html=1;whiteSpace=wrap;connectable=0;strokeColor=inherit;overflow=hidden;fillColor=none;top=0;left=0;bottom=0;right=0;pointerEvents=1;" vertex="1" parent="WvGcMjC-rIRjjNskrhYT-18">
          <mxGeometry x="120" width="80" height="40" as="geometry">
            <mxRectangle width="80" height="40" as="alternateBounds" />
          </mxGeometry>
        </mxCell>
        <mxCell id="WvGcMjC-rIRjjNskrhYT-22" value="" style="shape=tableRow;horizontal=0;startSize=0;swimlaneHead=0;swimlaneBody=0;strokeColor=inherit;top=0;left=0;bottom=0;right=0;collapsible=0;dropTarget=0;fillColor=none;points=[[0,0.5],[1,0.5]];portConstraint=eastwest;" vertex="1" parent="WvGcMjC-rIRjjNskrhYT-1">
          <mxGeometry y="200" width="200" height="40" as="geometry" />
        </mxCell>
        <mxCell id="WvGcMjC-rIRjjNskrhYT-23" value="25" style="shape=partialRectangle;html=1;whiteSpace=wrap;connectable=0;strokeColor=inherit;overflow=hidden;fillColor=none;top=0;left=0;bottom=0;right=0;pointerEvents=1;" vertex="1" parent="WvGcMjC-rIRjjNskrhYT-22">
          <mxGeometry width="60" height="40" as="geometry">
            <mxRectangle width="60" height="40" as="alternateBounds" />
          </mxGeometry>
        </mxCell>
        <mxCell id="WvGcMjC-rIRjjNskrhYT-24" value="1" style="shape=partialRectangle;html=1;whiteSpace=wrap;connectable=0;strokeColor=inherit;overflow=hidden;fillColor=none;top=0;left=0;bottom=0;right=0;pointerEvents=1;" vertex="1" parent="WvGcMjC-rIRjjNskrhYT-22">
          <mxGeometry x="60" width="60" height="40" as="geometry">
            <mxRectangle width="60" height="40" as="alternateBounds" />
          </mxGeometry>
        </mxCell>
        <mxCell id="WvGcMjC-rIRjjNskrhYT-25" value="15" style="shape=partialRectangle;html=1;whiteSpace=wrap;connectable=0;strokeColor=inherit;overflow=hidden;fillColor=none;top=0;left=0;bottom=0;right=0;pointerEvents=1;" vertex="1" parent="WvGcMjC-rIRjjNskrhYT-22">
          <mxGeometry x="120" width="80" height="40" as="geometry">
            <mxRectangle width="80" height="40" as="alternateBounds" />
          </mxGeometry>
        </mxCell>
        <mxCell id="WvGcMjC-rIRjjNskrhYT-26" value="" style="shape=tableRow;horizontal=0;startSize=0;swimlaneHead=0;swimlaneBody=0;strokeColor=inherit;top=0;left=0;bottom=0;right=0;collapsible=0;dropTarget=0;fillColor=none;points=[[0,0.5],[1,0.5]];portConstraint=eastwest;" vertex="1" parent="WvGcMjC-rIRjjNskrhYT-1">
          <mxGeometry y="240" width="200" height="40" as="geometry" />
        </mxCell>
        <mxCell id="WvGcMjC-rIRjjNskrhYT-27" value="26" style="shape=partialRectangle;html=1;whiteSpace=wrap;connectable=0;strokeColor=inherit;overflow=hidden;fillColor=none;top=0;left=0;bottom=0;right=0;pointerEvents=1;" vertex="1" parent="WvGcMjC-rIRjjNskrhYT-26">
          <mxGeometry width="60" height="40" as="geometry">
            <mxRectangle width="60" height="40" as="alternateBounds" />
          </mxGeometry>
        </mxCell>
        <mxCell id="WvGcMjC-rIRjjNskrhYT-28" value="1" style="shape=partialRectangle;html=1;whiteSpace=wrap;connectable=0;strokeColor=inherit;overflow=hidden;fillColor=none;top=0;left=0;bottom=0;right=0;pointerEvents=1;" vertex="1" parent="WvGcMjC-rIRjjNskrhYT-26">
          <mxGeometry x="60" width="60" height="40" as="geometry">
            <mxRectangle width="60" height="40" as="alternateBounds" />
          </mxGeometry>
        </mxCell>
        <mxCell id="WvGcMjC-rIRjjNskrhYT-29" value="16" style="shape=partialRectangle;html=1;whiteSpace=wrap;connectable=0;strokeColor=inherit;overflow=hidden;fillColor=none;top=0;left=0;bottom=0;right=0;pointerEvents=1;" vertex="1" parent="WvGcMjC-rIRjjNskrhYT-26">
          <mxGeometry x="120" width="80" height="40" as="geometry">
            <mxRectangle width="80" height="40" as="alternateBounds" />
          </mxGeometry>
        </mxCell>
        <mxCell id="WvGcMjC-rIRjjNskrhYT-30" value="" style="shape=tableRow;horizontal=0;startSize=0;swimlaneHead=0;swimlaneBody=0;strokeColor=inherit;top=0;left=0;bottom=0;right=0;collapsible=0;dropTarget=0;fillColor=none;points=[[0,0.5],[1,0.5]];portConstraint=eastwest;" vertex="1" parent="WvGcMjC-rIRjjNskrhYT-1">
          <mxGeometry y="280" width="200" height="40" as="geometry" />
        </mxCell>
        <mxCell id="WvGcMjC-rIRjjNskrhYT-31" value="27" style="shape=partialRectangle;html=1;whiteSpace=wrap;connectable=0;strokeColor=inherit;overflow=hidden;fillColor=none;top=0;left=0;bottom=0;right=0;pointerEvents=1;" vertex="1" parent="WvGcMjC-rIRjjNskrhYT-30">
          <mxGeometry width="60" height="40" as="geometry">
            <mxRectangle width="60" height="40" as="alternateBounds" />
          </mxGeometry>
        </mxCell>
        <mxCell id="WvGcMjC-rIRjjNskrhYT-32" value="1" style="shape=partialRectangle;html=1;whiteSpace=wrap;connectable=0;strokeColor=inherit;overflow=hidden;fillColor=none;top=0;left=0;bottom=0;right=0;pointerEvents=1;" vertex="1" parent="WvGcMjC-rIRjjNskrhYT-30">
          <mxGeometry x="60" width="60" height="40" as="geometry">
            <mxRectangle width="60" height="40" as="alternateBounds" />
          </mxGeometry>
        </mxCell>
        <mxCell id="WvGcMjC-rIRjjNskrhYT-33" value="22" style="shape=partialRectangle;html=1;whiteSpace=wrap;connectable=0;strokeColor=inherit;overflow=hidden;fillColor=none;top=0;left=0;bottom=0;right=0;pointerEvents=1;" vertex="1" parent="WvGcMjC-rIRjjNskrhYT-30">
          <mxGeometry x="120" width="80" height="40" as="geometry">
            <mxRectangle width="80" height="40" as="alternateBounds" />
          </mxGeometry>
        </mxCell>
        <mxCell id="nun3F6Sf1-hT-UwbbtUc-99" value="" style="endArrow=none;html=1;rounded=0;fontSize=12;startSize=8;endSize=8;curved=1;" edge="1" parent="1">
          <mxGeometry width="50" height="50" relative="1" as="geometry">
            <mxPoint x="310" y="1200" as="sourcePoint" />
            <mxPoint x="390" y="1200" as="targetPoint" />
          </mxGeometry>
        </mxCell>
        <mxCell id="nun3F6Sf1-hT-UwbbtUc-100" value="" style="endArrow=none;html=1;rounded=0;fontSize=12;startSize=8;endSize=8;curved=1;" edge="1" parent="1">
          <mxGeometry width="50" height="50" relative="1" as="geometry">
            <mxPoint x="350" y="1240" as="sourcePoint" />
            <mxPoint x="350" y="1160" as="targetPoint" />
          </mxGeometry>
        </mxCell>
        <mxCell id="nun3F6Sf1-hT-UwbbtUc-101" value="0" style="text;html=1;align=center;verticalAlign=middle;whiteSpace=wrap;rounded=0;fontSize=16;container=0;" vertex="1" parent="1">
          <mxGeometry x="290" y="1170" width="60" height="30" as="geometry" />
        </mxCell>
        <mxCell id="nun3F6Sf1-hT-UwbbtUc-102" value="3" style="text;html=1;align=center;verticalAlign=middle;whiteSpace=wrap;rounded=0;fontSize=16;container=0;" vertex="1" parent="1">
          <mxGeometry x="350" y="1170" width="60" height="30" as="geometry" />
        </mxCell>
        <mxCell id="nun3F6Sf1-hT-UwbbtUc-103" value="0" style="text;html=1;align=center;verticalAlign=middle;whiteSpace=wrap;rounded=0;fontSize=16;container=0;" vertex="1" parent="1">
          <mxGeometry x="290" y="1200" width="60" height="30" as="geometry" />
        </mxCell>
        <mxCell id="nun3F6Sf1-hT-UwbbtUc-104" value="3" style="text;html=1;align=center;verticalAlign=middle;whiteSpace=wrap;rounded=0;fontSize=16;container=0;" vertex="1" parent="1">
          <mxGeometry x="350" y="1200" width="60" height="30" as="geometry" />
        </mxCell>
        <mxCell id="nun3F6Sf1-hT-UwbbtUc-106" value="14" style="ellipse;whiteSpace=wrap;html=1;aspect=fixed;container=0;fillColor=#f8cecc;strokeColor=#b85450;" vertex="1" parent="1">
          <mxGeometry x="310" y="1298" width="80" height="80" as="geometry" />
        </mxCell>
        <mxCell id="nun3F6Sf1-hT-UwbbtUc-107" value="H=0" style="text;html=1;align=center;verticalAlign=middle;whiteSpace=wrap;rounded=0;fontSize=16;container=0;" vertex="1" parent="1">
          <mxGeometry x="320" y="1250" width="60" height="30" as="geometry" />
        </mxCell>
        <mxCell id="nun3F6Sf1-hT-UwbbtUc-121" value="" style="endArrow=none;html=1;rounded=0;fontSize=12;startSize=8;endSize=8;curved=1;" edge="1" parent="1">
          <mxGeometry width="50" height="50" relative="1" as="geometry">
            <mxPoint x="700" y="1200" as="sourcePoint" />
            <mxPoint x="780" y="1200" as="targetPoint" />
          </mxGeometry>
        </mxCell>
        <mxCell id="nun3F6Sf1-hT-UwbbtUc-122" value="" style="endArrow=none;html=1;rounded=0;fontSize=12;startSize=8;endSize=8;curved=1;" edge="1" parent="1">
          <mxGeometry width="50" height="50" relative="1" as="geometry">
            <mxPoint x="740" y="1240" as="sourcePoint" />
            <mxPoint x="740" y="1160" as="targetPoint" />
          </mxGeometry>
        </mxCell>
        <mxCell id="nun3F6Sf1-hT-UwbbtUc-123" value="4" style="text;html=1;align=center;verticalAlign=middle;whiteSpace=wrap;rounded=0;fontSize=16;container=0;" vertex="1" parent="1">
          <mxGeometry x="680" y="1170" width="60" height="30" as="geometry" />
        </mxCell>
        <mxCell id="nun3F6Sf1-hT-UwbbtUc-124" value="5" style="text;html=1;align=center;verticalAlign=middle;whiteSpace=wrap;rounded=0;fontSize=16;container=0;" vertex="1" parent="1">
          <mxGeometry x="740" y="1170" width="60" height="30" as="geometry" />
        </mxCell>
        <mxCell id="nun3F6Sf1-hT-UwbbtUc-125" value="4" style="text;html=1;align=center;verticalAlign=middle;whiteSpace=wrap;rounded=0;fontSize=16;container=0;" vertex="1" parent="1">
          <mxGeometry x="680" y="1200" width="60" height="30" as="geometry" />
        </mxCell>
        <mxCell id="nun3F6Sf1-hT-UwbbtUc-126" value="5" style="text;html=1;align=center;verticalAlign=middle;whiteSpace=wrap;rounded=0;fontSize=16;container=0;" vertex="1" parent="1">
          <mxGeometry x="740" y="1200" width="60" height="30" as="geometry" />
        </mxCell>
        <mxCell id="nun3F6Sf1-hT-UwbbtUc-128" value="19" style="ellipse;whiteSpace=wrap;html=1;aspect=fixed;container=0;fillColor=#f8cecc;strokeColor=#b85450;" vertex="1" parent="1">
          <mxGeometry x="700" y="1298" width="80" height="80" as="geometry" />
        </mxCell>
        <mxCell id="nun3F6Sf1-hT-UwbbtUc-129" value="H=0" style="text;html=1;align=center;verticalAlign=middle;whiteSpace=wrap;rounded=0;fontSize=16;container=0;" vertex="1" parent="1">
          <mxGeometry x="710" y="1250" width="60" height="30" as="geometry" />
        </mxCell>
        <mxCell id="nun3F6Sf1-hT-UwbbtUc-231" value="" style="endArrow=none;html=1;rounded=0;fontSize=12;startSize=8;endSize=8;curved=1;" edge="1" parent="1">
          <mxGeometry width="50" height="50" relative="1" as="geometry">
            <mxPoint x="870" y="1200" as="sourcePoint" />
            <mxPoint x="950" y="1200" as="targetPoint" />
          </mxGeometry>
        </mxCell>
        <mxCell id="nun3F6Sf1-hT-UwbbtUc-232" value="" style="endArrow=none;html=1;rounded=0;fontSize=12;startSize=8;endSize=8;curved=1;" edge="1" parent="1">
          <mxGeometry width="50" height="50" relative="1" as="geometry">
            <mxPoint x="910" y="1240" as="sourcePoint" />
            <mxPoint x="910" y="1160" as="targetPoint" />
          </mxGeometry>
        </mxCell>
        <mxCell id="nun3F6Sf1-hT-UwbbtUc-233" value="5" style="text;html=1;align=center;verticalAlign=middle;whiteSpace=wrap;rounded=0;fontSize=16;container=0;" vertex="1" parent="1">
          <mxGeometry x="850" y="1170" width="60" height="30" as="geometry" />
        </mxCell>
        <mxCell id="nun3F6Sf1-hT-UwbbtUc-234" value="8" style="text;html=1;align=center;verticalAlign=middle;whiteSpace=wrap;rounded=0;fontSize=16;container=0;" vertex="1" parent="1">
          <mxGeometry x="910" y="1170" width="60" height="30" as="geometry" />
        </mxCell>
        <mxCell id="nun3F6Sf1-hT-UwbbtUc-235" value="5" style="text;html=1;align=center;verticalAlign=middle;whiteSpace=wrap;rounded=0;fontSize=16;container=0;" vertex="1" parent="1">
          <mxGeometry x="850" y="1200" width="60" height="30" as="geometry" />
        </mxCell>
        <mxCell id="nun3F6Sf1-hT-UwbbtUc-236" value="8" style="text;html=1;align=center;verticalAlign=middle;whiteSpace=wrap;rounded=0;fontSize=16;container=0;" vertex="1" parent="1">
          <mxGeometry x="910" y="1200" width="60" height="30" as="geometry" />
        </mxCell>
        <mxCell id="nun3F6Sf1-hT-UwbbtUc-238" value="21" style="ellipse;whiteSpace=wrap;html=1;aspect=fixed;container=0;fillColor=#f8cecc;strokeColor=#b85450;" vertex="1" parent="1">
          <mxGeometry x="870" y="1298" width="80" height="80" as="geometry" />
        </mxCell>
        <mxCell id="nun3F6Sf1-hT-UwbbtUc-239" value="H=0" style="text;html=1;align=center;verticalAlign=middle;whiteSpace=wrap;rounded=0;fontSize=16;container=0;" vertex="1" parent="1">
          <mxGeometry x="880" y="1250" width="60" height="30" as="geometry" />
        </mxCell>
        <mxCell id="nun3F6Sf1-hT-UwbbtUc-264" value="" style="endArrow=none;html=1;rounded=0;fontSize=12;startSize=8;endSize=8;curved=1;" edge="1" parent="1">
          <mxGeometry width="50" height="50" relative="1" as="geometry">
            <mxPoint x="510" y="1200" as="sourcePoint" />
            <mxPoint x="590" y="1200" as="targetPoint" />
          </mxGeometry>
        </mxCell>
        <mxCell id="nun3F6Sf1-hT-UwbbtUc-265" value="" style="endArrow=none;html=1;rounded=0;fontSize=12;startSize=8;endSize=8;curved=1;" edge="1" parent="1">
          <mxGeometry width="50" height="50" relative="1" as="geometry">
            <mxPoint x="550" y="1240" as="sourcePoint" />
            <mxPoint x="550" y="1160" as="targetPoint" />
          </mxGeometry>
        </mxCell>
        <mxCell id="nun3F6Sf1-hT-UwbbtUc-266" value="3" style="text;html=1;align=center;verticalAlign=middle;whiteSpace=wrap;rounded=0;fontSize=16;container=0;" vertex="1" parent="1">
          <mxGeometry x="490" y="1170" width="60" height="30" as="geometry" />
        </mxCell>
        <mxCell id="nun3F6Sf1-hT-UwbbtUc-267" value="4" style="text;html=1;align=center;verticalAlign=middle;whiteSpace=wrap;rounded=0;fontSize=16;container=0;" vertex="1" parent="1">
          <mxGeometry x="550" y="1170" width="60" height="30" as="geometry" />
        </mxCell>
        <mxCell id="nun3F6Sf1-hT-UwbbtUc-268" value="3" style="text;html=1;align=center;verticalAlign=middle;whiteSpace=wrap;rounded=0;fontSize=16;container=0;" vertex="1" parent="1">
          <mxGeometry x="490" y="1200" width="60" height="30" as="geometry" />
        </mxCell>
        <mxCell id="nun3F6Sf1-hT-UwbbtUc-269" value="4" style="text;html=1;align=center;verticalAlign=middle;whiteSpace=wrap;rounded=0;fontSize=16;container=0;" vertex="1" parent="1">
          <mxGeometry x="550" y="1200" width="60" height="30" as="geometry" />
        </mxCell>
        <mxCell id="nun3F6Sf1-hT-UwbbtUc-271" value="17" style="ellipse;whiteSpace=wrap;html=1;aspect=fixed;container=0;fillColor=#f8cecc;strokeColor=#b85450;" vertex="1" parent="1">
          <mxGeometry x="510" y="1298" width="80" height="80" as="geometry" />
        </mxCell>
        <mxCell id="nun3F6Sf1-hT-UwbbtUc-272" value="H=0" style="text;html=1;align=center;verticalAlign=middle;whiteSpace=wrap;rounded=0;fontSize=16;container=0;" vertex="1" parent="1">
          <mxGeometry x="520" y="1250" width="60" height="30" as="geometry" />
        </mxCell>
        <mxCell id="nun3F6Sf1-hT-UwbbtUc-286" value="" style="endArrow=none;html=1;rounded=0;fontSize=12;startSize=8;endSize=8;curved=1;" edge="1" parent="1">
          <mxGeometry width="50" height="50" relative="1" as="geometry">
            <mxPoint x="1060" y="1200" as="sourcePoint" />
            <mxPoint x="1140" y="1200" as="targetPoint" />
          </mxGeometry>
        </mxCell>
        <mxCell id="nun3F6Sf1-hT-UwbbtUc-287" value="" style="endArrow=none;html=1;rounded=0;fontSize=12;startSize=8;endSize=8;curved=1;" edge="1" parent="1">
          <mxGeometry width="50" height="50" relative="1" as="geometry">
            <mxPoint x="1100" y="1240" as="sourcePoint" />
            <mxPoint x="1100" y="1160" as="targetPoint" />
          </mxGeometry>
        </mxCell>
        <mxCell id="nun3F6Sf1-hT-UwbbtUc-288" value="8" style="text;html=1;align=center;verticalAlign=middle;whiteSpace=wrap;rounded=0;fontSize=16;container=0;" vertex="1" parent="1">
          <mxGeometry x="1040" y="1170" width="60" height="30" as="geometry" />
        </mxCell>
        <mxCell id="nun3F6Sf1-hT-UwbbtUc-289" value="10" style="text;html=1;align=center;verticalAlign=middle;whiteSpace=wrap;rounded=0;fontSize=16;container=0;" vertex="1" parent="1">
          <mxGeometry x="1100" y="1170" width="60" height="30" as="geometry" />
        </mxCell>
        <mxCell id="nun3F6Sf1-hT-UwbbtUc-290" value="8" style="text;html=1;align=center;verticalAlign=middle;whiteSpace=wrap;rounded=0;fontSize=16;container=0;" vertex="1" parent="1">
          <mxGeometry x="1040" y="1200" width="60" height="30" as="geometry" />
        </mxCell>
        <mxCell id="nun3F6Sf1-hT-UwbbtUc-291" value="10" style="text;html=1;align=center;verticalAlign=middle;whiteSpace=wrap;rounded=0;fontSize=16;container=0;" vertex="1" parent="1">
          <mxGeometry x="1100" y="1200" width="60" height="30" as="geometry" />
        </mxCell>
        <mxCell id="nun3F6Sf1-hT-UwbbtUc-293" value="22" style="ellipse;whiteSpace=wrap;html=1;aspect=fixed;container=0;fillColor=#f8cecc;strokeColor=#b85450;" vertex="1" parent="1">
          <mxGeometry x="1060" y="1298" width="80" height="80" as="geometry" />
        </mxCell>
        <mxCell id="nun3F6Sf1-hT-UwbbtUc-294" value="H=0" style="text;html=1;align=center;verticalAlign=middle;whiteSpace=wrap;rounded=0;fontSize=16;container=0;" vertex="1" parent="1">
          <mxGeometry x="1070" y="1250" width="60" height="30" as="geometry" />
        </mxCell>
        <mxCell id="nun3F6Sf1-hT-UwbbtUc-297" value="" style="endArrow=none;html=1;rounded=0;fontSize=12;startSize=8;endSize=8;curved=1;" edge="1" parent="1">
          <mxGeometry width="50" height="50" relative="1" as="geometry">
            <mxPoint x="1240" y="1200" as="sourcePoint" />
            <mxPoint x="1320" y="1200" as="targetPoint" />
          </mxGeometry>
        </mxCell>
        <mxCell id="nun3F6Sf1-hT-UwbbtUc-298" value="" style="endArrow=none;html=1;rounded=0;fontSize=12;startSize=8;endSize=8;curved=1;" edge="1" parent="1">
          <mxGeometry width="50" height="50" relative="1" as="geometry">
            <mxPoint x="1280" y="1240" as="sourcePoint" />
            <mxPoint x="1280" y="1160" as="targetPoint" />
          </mxGeometry>
        </mxCell>
        <mxCell id="nun3F6Sf1-hT-UwbbtUc-299" value="10" style="text;html=1;align=center;verticalAlign=middle;whiteSpace=wrap;rounded=0;fontSize=16;container=0;" vertex="1" parent="1">
          <mxGeometry x="1220" y="1170" width="60" height="30" as="geometry" />
        </mxCell>
        <mxCell id="nun3F6Sf1-hT-UwbbtUc-300" value="11" style="text;html=1;align=center;verticalAlign=middle;whiteSpace=wrap;rounded=0;fontSize=16;container=0;" vertex="1" parent="1">
          <mxGeometry x="1280" y="1170" width="60" height="30" as="geometry" />
        </mxCell>
        <mxCell id="nun3F6Sf1-hT-UwbbtUc-301" value="10" style="text;html=1;align=center;verticalAlign=middle;whiteSpace=wrap;rounded=0;fontSize=16;container=0;" vertex="1" parent="1">
          <mxGeometry x="1220" y="1200" width="60" height="30" as="geometry" />
        </mxCell>
        <mxCell id="nun3F6Sf1-hT-UwbbtUc-302" value="11" style="text;html=1;align=center;verticalAlign=middle;whiteSpace=wrap;rounded=0;fontSize=16;container=0;" vertex="1" parent="1">
          <mxGeometry x="1280" y="1200" width="60" height="30" as="geometry" />
        </mxCell>
        <mxCell id="nun3F6Sf1-hT-UwbbtUc-304" value="27" style="ellipse;whiteSpace=wrap;html=1;aspect=fixed;container=0;fillColor=#f8cecc;strokeColor=#b85450;" vertex="1" parent="1">
          <mxGeometry x="1240" y="1298" width="80" height="80" as="geometry" />
        </mxCell>
        <mxCell id="nun3F6Sf1-hT-UwbbtUc-305" value="H=0" style="text;html=1;align=center;verticalAlign=middle;whiteSpace=wrap;rounded=0;fontSize=16;container=0;" vertex="1" parent="1">
          <mxGeometry x="1250" y="1250" width="60" height="30" as="geometry" />
        </mxCell>
      </root>
    </mxGraphModel>
  </diagram>
</mxfile>
